<svg width="139" height="121" viewBox="0 0 139 121" fill="none" xmlns="http://www.w3.org/2000/svg">
<path d="M129.279 120.012H9.72096C5.39336 112.542 4.3276 110.707 0 103.237L59.779 0.0117188C68.402 0.0117188 70.5658 0.0117188 79.221 0.0117188L139 103.237C134.672 110.707 133.607 112.542 129.279 120.012ZM23.8664 110.352H115.166C122.626 110.352 127.277 102.303 123.563 95.8636L100.73 56.4539L77.8969 17.0442C74.1829 10.6047 64.8494 10.6047 61.1032 17.0442L15.4696 95.8636C11.7556 102.303 16.4061 110.352 23.8664 110.352Z" fill="white"/>
<path d="M75.8945 35.5255H63.1055V74.6777H75.8945V35.5255Z" fill="#262626"/>
<path d="M75.8945 84.0149H63.1055V94.6401H75.8945V84.0149Z" fill="#262626"/>
</svg>
