<svg width="18" height="18" viewBox="0 0 18 18" fill="none" xmlns="http://www.w3.org/2000/svg">
<g clip-path="url(#clip0_2176_2131)">
<path d="M9.00001 0C7.21997 0 5.47991 0.52785 3.99987 1.51678C2.51983 2.50572 1.36628 3.91132 0.685088 5.55585C0.00389953 7.20039 -0.17433 9.00999 0.172937 10.7558C0.520203 12.5016 1.37738 14.1053 2.63605 15.364C3.89473 16.6226 5.49837 17.4798 7.2442 17.8271C8.99003 18.1743 10.7996 17.9961 12.4442 17.3149C14.0887 16.6337 15.4943 15.4802 16.4832 14.0001C17.4722 12.5201 18 10.78 18 9C18 6.61305 17.0518 4.32388 15.364 2.63605C13.6761 0.948222 11.387 0 9.00001 0ZM4.74189 14.625V12.7463C4.73123 12.4967 4.80393 12.2506 4.94856 12.0469C5.09318 11.8432 5.30148 11.6935 5.54063 11.6213C6.33175 11.3791 7.10438 11.0802 7.85252 10.7269C9.25901 10.0812 10.8304 9.88475 12.3525 10.1644C12.6146 10.2123 12.8512 10.3517 13.0201 10.5577C13.189 10.7637 13.2794 11.023 13.275 11.2894V14.6363C13.2765 14.9628 13.1832 15.2827 13.0065 15.5573C12.8298 15.8319 12.5772 16.0493 12.2794 16.1831C11.2561 16.6538 10.1432 16.8975 9.01688 16.8975C7.89059 16.8975 6.77763 16.6538 5.75439 16.1831C5.44987 16.0503 5.19135 15.8305 5.01123 15.5513C4.83111 15.2721 4.73743 14.946 4.74189 14.6138V14.625ZM14.3831 14.7375V11.2837C14.3865 10.7548 14.2034 10.2416 13.866 9.83427C13.5286 9.42692 13.0584 9.15145 12.5381 9.05625C10.8273 8.76941 9.07004 8.98027 7.47563 9.66375C6.43329 10.1539 5.34143 10.5311 4.21875 10.7887L3.62814 10.9181V14.6925C2.47528 13.6128 1.67374 12.2114 1.32763 10.6703C0.98153 9.12915 1.10686 7.51956 1.68733 6.05058C2.2678 4.58161 3.2766 3.32114 4.58268 2.43289C5.88876 1.54464 7.43176 1.06967 9.01127 1.06967C10.5908 1.06967 12.1338 1.54464 13.4398 2.43289C14.7459 3.32114 15.7547 4.58161 16.3352 6.05058C16.9157 7.51956 17.041 9.12915 16.6949 10.6703C16.3488 12.2114 15.5472 13.6128 14.3944 14.6925L14.3831 14.7375Z" fill="#262626"/>
<path d="M8.99998 2.8125C8.45262 2.8125 7.91756 2.97481 7.46245 3.2789C7.00733 3.583 6.65262 4.01523 6.44316 4.52093C6.23369 5.02662 6.17887 5.58307 6.28566 6.11992C6.39244 6.65676 6.65604 7.14987 7.04308 7.53691C7.43012 7.92395 7.92323 8.18755 8.46007 8.29433C8.99692 8.40112 9.55337 8.3463 10.0591 8.13683C10.5648 7.92737 10.997 7.57266 11.3011 7.11754C11.6052 6.66243 11.7675 6.12737 11.7675 5.58001C11.7675 4.84602 11.4759 4.14209 10.9569 3.62308C10.4379 3.10408 9.73397 2.8125 8.99998 2.8125ZM8.99998 7.2225C8.67513 7.2225 8.35757 7.12617 8.08747 6.94569C7.81736 6.76521 7.60683 6.50869 7.48251 6.20856C7.3582 5.90843 7.32567 5.57818 7.38905 5.25957C7.45242 4.94095 7.60885 4.64829 7.83856 4.41858C8.06827 4.18887 8.36095 4.03244 8.67956 3.96907C8.99817 3.90569 9.32841 3.93822 9.62854 4.06254C9.92867 4.18685 10.1852 4.39736 10.3657 4.66747C10.5462 4.93758 10.6425 5.25515 10.6425 5.58001C10.6425 6.01563 10.4694 6.43341 10.1614 6.74143C9.85338 7.04946 9.4356 7.2225 8.99998 7.2225Z" fill="#262626"/>
</g>
<defs>
<clipPath id="clip0_2176_2131">
<rect width="18" height="18" fill="white"/>
</clipPath>
</defs>
</svg>
