<svg width="476" height="446" viewBox="0 0 476 446" fill="none" xmlns="http://www.w3.org/2000/svg">
<path d="M243.789 318.968C249.389 363.966 236.222 411.707 215.753 453.27C211.462 461.983 207.175 470.558 203.2 479.012L190.214 471.841C193.313 466.037 196.746 459.986 200.469 453.621C222.98 415.244 237.853 362.287 232.643 320.35C232.003 315.114 224.474 311.644 220.076 310.054C195.097 301.124 147.158 306.371 128.246 324.353L120.512 316.248C143.066 294.81 195.256 289.277 223.853 299.536C238.983 304.955 243.021 313.07 243.792 318.982L243.789 318.968Z" fill="#262626"/>
<path d="M659.865 61.9363C662.32 79.7057 630.954 100.738 590.449 115.381L578.495 108.514C623.991 94.5092 649.872 74.5477 648.331 63.5917C647.45 57.107 636.643 51.6182 618.727 48.4866C594.838 44.3571 559.854 44.4172 514.792 48.7155C513.742 48.7955 512.715 48.9169 511.744 49.0885C510.776 53.1575 507.968 60.2451 504.178 65.8619C504.134 65.8703 504.105 65.876 504.093 65.8935L504.02 65.9076L497.968 62.4428L484.019 54.2999C494.91 45.0941 499.551 30.68 495.551 17.38C487.414 -9.6962 467.998 -46.8601 431.641 -84.374C411.057 -81.1149 287.274 -60.0904 189.568 -11.7408L183.195 82.4592C183.029 84.6076 181.646 86.5181 179.604 87.3678C145.902 100.992 95.1234 112.13 58.099 120.257C40.9429 124.014 23.367 127.882 14.8493 130.51C32.728 141.765 115.717 172.852 269.142 130.609C382.199 99.5277 391.283 42.4923 389.964 19.3882C388.509 -5.85184 369.756 -23.5618 349.654 -33.399L353.468 -51.1712C379.61 -41.0189 399.712 -12.8793 401.557 18.5896C403.031 44.4045 393.423 108.058 272.19 141.412C182.413 166.082 117.027 165.413 78.014 160.492C35.8188 155.164 7.01069 142.616 1.31175 133.541C-1.01013 129.77 0.102476 126.373 1.93052 124.484C5.67523 120.612 16.1122 117.995 55.705 109.298C91.0798 101.534 139.102 91.0171 171.874 78.3332L178.221 -15.5268C178.344 -17.4996 179.55 -19.2999 181.385 -20.2011C289.948 -74.8418 431.623 -95.7145 433.043 -95.9267C434.909 -96.1942 436.777 -95.579 438.027 -94.2969C487.747 -43.9289 508.979 7.04654 511.638 37.7649C512.351 37.6735 513.049 37.5849 513.765 37.5081C630.153 26.4635 657.451 44.6921 659.848 61.9244L659.865 61.9363Z" fill="#262626"/>
<path d="M355.002 141.318C375.993 167.506 382.443 226.837 314.423 244.215C243.918 262.208 206.615 217.948 171.609 177.723L170.023 175.881L156.146 176.114L153.214 177.881C111.484 202.307 86.0872 231.601 77.6287 265.037C70.0848 294.916 76.6124 327.159 96.9298 361.013L111.919 362.926C114.054 300.847 195.294 295.894 270.137 285.517C316.218 279.15 359.82 273.107 383.573 254.743L371.784 249.291C349.251 263.233 309.978 268.686 268.597 274.408C198.184 284.162 115.269 289.346 102.468 348.101C86.9403 319.538 82.2458 292.561 88.4947 267.743C96.4553 236.23 121.56 208.424 163.173 185.056C196.373 223.162 235.855 271.007 308.164 257.098C311.127 256.528 314.157 255.823 317.204 255.054C403.52 233.273 388.457 142.649 353.735 121.57L355 141.304L355.002 141.318Z" fill="#262626"/>
<path d="M306.882 175.09C308.055 178.899 308.269 182.787 307.67 186.48C306.957 190.926 305.05 195.1 302.214 198.554C299.18 202.244 295.073 205.104 290.174 206.61C276.857 210.71 262.745 203.222 258.666 189.907C257.779 187.032 257.45 184.127 257.576 181.301C270.177 176.243 284.989 170.028 299.234 163.39C302.728 166.372 305.426 170.36 306.879 175.075L306.882 175.09Z" fill="#262626"/>
<path d="M353.738 121.584C324.129 153.272 246.653 188.594 217.502 189.314L214.85 200.3C219.085 199.775 224.781 198.694 231.548 197.088C235.332 196.193 239.162 198.151 240.782 201.676C251.695 225.539 281.687 236.884 306.347 222.213C324.835 211.21 332.864 189.323 327.09 169.558C325.713 164.844 327.749 159.839 332.016 157.419C340.745 152.481 349.312 147.103 357.508 141.293L353.723 121.587L353.738 121.584ZM301.101 213.355C284.058 223.485 262.044 217.868 251.921 200.813C250.347 198.162 249.178 195.402 248.346 192.578C267.512 186.927 291.196 178.26 314.894 166.499C323.193 183.174 317.364 203.679 301.101 213.355Z" fill="#262626"/>
</svg>
