<svg width="17" height="16" viewBox="0 0 17 16" fill="none" xmlns="http://www.w3.org/2000/svg">
<g clip-path="url(#clip0_2176_2123)">
<path d="M16.6332 15.2835L14.2062 12.8515C13.9674 12.611 13.8162 12.2972 13.7769 11.9606C13.7375 11.6239 13.8123 11.2838 13.9893 10.9947C14.921 9.48531 15.2658 7.68631 14.9583 5.93943C14.6507 4.19254 13.7122 2.61948 12.321 1.51909C10.9299 0.418704 9.18295 -0.132333 7.41219 -0.0293519C5.64143 0.0736289 3.9702 0.823463 2.71597 2.0777C1.46174 3.33193 0.711904 5.00317 0.608923 6.77393C0.505942 8.54469 1.05699 10.2916 2.15738 11.6828C3.25777 13.0739 4.8308 14.0124 6.57769 14.32C8.32457 14.6275 10.1236 14.2827 11.6329 13.351C11.922 13.174 12.2622 13.0993 12.5988 13.1386C12.9355 13.1779 13.2492 13.3291 13.4898 13.568L15.9218 15.995L16.6332 15.2835ZM7.85369 13.4166C6.62578 13.4176 5.42517 13.0543 4.40378 12.3728C3.3824 11.6912 2.58613 10.722 2.11577 9.58773C1.64541 8.45348 1.52209 7.20519 1.7614 6.00082C2.0007 4.79646 2.59188 3.69014 3.46014 2.82188C4.3284 1.95362 5.43473 1.36243 6.6391 1.12312C7.84346 0.883813 9.09174 1.00714 10.226 1.4775C11.3602 1.94786 12.3295 2.74412 13.0111 3.76551C13.6926 4.78689 14.0559 5.9875 14.0549 7.21541C14.0535 8.85966 13.3998 10.4362 12.2371 11.5988C11.0744 12.7615 9.49794 13.4153 7.85369 13.4166Z" fill="white"/>
<path d="M7.85372 2.28572C6.87788 2.28172 5.9228 2.56745 5.10946 3.10669C4.29613 3.64594 3.66113 4.41444 3.28491 5.31486C2.9087 6.21528 2.80821 7.2071 2.99613 8.16469C3.18406 9.12228 3.65198 10.0026 4.34059 10.694C5.02921 11.3855 5.90754 11.857 6.86435 12.0488C7.82116 12.2407 8.8134 12.1442 9.71535 11.7717C10.6173 11.3992 11.3884 10.7674 11.931 9.95626C12.4736 9.14515 12.7632 8.19126 12.7632 7.2154C12.7619 5.91187 12.2448 4.66179 11.325 3.73816C10.4052 2.81454 9.15724 2.29238 7.85372 2.28572ZM7.85372 11.1309C7.07725 11.1349 6.31708 10.9082 5.66959 10.4796C5.02211 10.0511 4.51645 9.43986 4.21676 8.72355C3.91708 8.00723 3.83685 7.21805 3.98625 6.45608C4.13564 5.69411 4.50795 4.99366 5.05594 4.44355C5.60393 3.89343 6.30293 3.51843 7.06431 3.36608C7.8257 3.21373 8.61517 3.29089 9.33264 3.5878C10.0501 3.88471 10.6633 4.38799 11.0944 5.03381C11.5254 5.67963 11.755 6.43892 11.7541 7.2154C11.7581 8.25432 11.3496 9.25235 10.6182 9.99029C9.88693 10.7282 8.89264 11.1457 7.85372 11.1511V11.1309Z" fill="white"/>
</g>
<defs>
<clipPath id="clip0_2176_2123">
<rect width="16" height="16" fill="white" transform="translate(0.638306)"/>
</clipPath>
</defs>
</svg>
