<svg width="477" height="446" viewBox="0 0 477 446" fill="none" xmlns="http://www.w3.org/2000/svg">
<path d="M244.5 318.968C250.1 363.966 236.933 411.707 216.464 453.27C212.173 461.983 207.886 470.558 203.911 479.012L190.924 471.841C194.024 466.037 197.457 459.986 201.18 453.621C223.691 415.244 238.564 362.287 233.354 320.35C232.714 315.114 225.185 311.644 220.787 310.054C195.808 301.124 147.869 306.371 128.957 324.353L121.223 316.248C143.777 294.81 195.967 289.277 224.564 299.536C239.694 304.955 243.732 313.07 244.503 318.982L244.5 318.968Z" fill="#262626"/>
<path d="M660.576 61.9363C663.03 79.7057 631.665 100.738 591.16 115.381L579.206 108.514C624.702 94.5092 650.583 74.5477 649.042 63.5917C648.161 57.107 637.354 51.6182 619.438 48.4866C595.548 44.3571 560.565 44.4172 515.503 48.7155C514.453 48.7955 513.426 48.9169 512.455 49.0885C511.487 53.1575 508.679 60.2451 504.889 65.8619C504.845 65.8703 504.816 65.876 504.804 65.8935L504.731 65.9076L498.679 62.4428L484.73 54.2999C495.621 45.0941 500.262 30.68 496.262 17.38C488.125 -9.6962 468.709 -46.8601 432.352 -84.374C411.768 -81.1149 287.985 -60.0904 190.279 -11.7408L183.906 82.4592C183.74 84.6076 182.357 86.5181 180.314 87.3678C146.613 100.992 95.8343 112.13 58.8099 120.257C41.6539 124.014 24.0779 127.882 15.5602 130.51C33.4389 141.765 116.428 172.852 269.853 130.609C382.91 99.5277 391.994 42.4923 390.675 19.3882C389.22 -5.85184 370.467 -23.5618 350.365 -33.399L354.179 -51.1712C380.321 -41.0189 400.423 -12.8793 402.268 18.5896C403.742 44.4045 394.134 108.058 272.901 141.412C183.124 166.082 117.738 165.413 78.725 160.492C36.5297 155.164 7.72163 142.616 2.02269 133.541C-0.299196 129.77 0.813413 126.373 2.64146 124.484C6.38616 120.612 16.8232 117.995 56.4159 109.298C91.7907 101.534 139.813 91.0171 172.584 78.3332L178.932 -15.5268C179.055 -17.4996 180.261 -19.2999 182.096 -20.2011C290.659 -74.8418 432.334 -95.7145 433.754 -95.9267C435.62 -96.1942 437.488 -95.579 438.738 -94.2969C488.458 -43.9289 509.69 7.04654 512.349 37.7649C513.062 37.6735 513.76 37.5849 514.476 37.5081C630.864 26.4635 658.162 44.6921 660.559 61.9244L660.576 61.9363Z" fill="#262626"/>
<path d="M355.713 141.318C376.704 167.506 383.154 226.837 315.134 244.215C244.629 262.208 207.326 217.948 172.32 177.723L170.734 175.881L156.857 176.114L153.925 177.881C112.195 202.307 86.7981 231.601 78.3397 265.037C70.7958 294.916 77.3233 327.159 97.6407 361.013L112.63 362.926C114.765 300.847 196.005 295.894 270.848 285.517C316.929 279.15 360.531 273.107 384.284 254.743L372.495 249.291C349.962 263.233 310.689 268.686 269.308 274.408C198.895 284.162 115.98 289.346 103.179 348.101C87.6513 319.538 82.9568 292.561 89.2057 267.743C97.1662 236.23 122.271 208.424 163.884 185.056C197.084 223.162 236.566 271.007 308.874 257.098C311.838 256.528 314.868 255.823 317.915 255.054C404.231 233.273 389.168 142.649 354.446 121.57L355.711 141.304L355.713 141.318Z" fill="#262626"/>
<path d="M307.593 175.09C308.766 178.899 308.98 182.787 308.381 186.48C307.668 190.926 305.761 195.1 302.925 198.554C299.891 202.244 295.784 205.104 290.885 206.61C277.568 210.71 263.456 203.222 259.377 189.907C258.49 187.032 258.161 184.127 258.287 181.301C270.888 176.243 285.7 170.028 299.945 163.39C303.439 166.372 306.137 170.36 307.59 175.075L307.593 175.09Z" fill="#262626"/>
<path d="M354.449 121.584C324.84 153.272 247.364 188.594 218.213 189.314L215.561 200.3C219.796 199.775 225.492 198.694 232.259 197.088C236.043 196.193 239.873 198.151 241.493 201.676C252.406 225.539 282.398 236.884 307.058 222.213C325.546 211.21 333.575 189.323 327.801 169.558C326.424 164.844 328.46 159.839 332.727 157.419C341.456 152.481 350.023 147.103 358.219 141.293L354.434 121.587L354.449 121.584ZM301.812 213.355C284.769 223.485 262.754 217.868 252.632 200.813C251.058 198.162 249.889 195.402 249.057 192.578C268.223 186.927 291.906 178.26 315.604 166.499C323.904 183.174 318.075 203.679 301.812 213.355Z" fill="#262626"/>
</svg>
