<svg xmlns="http://www.w3.org/2000/svg" width="885" height="638" fill="none"><path fill="#FBCA2B" d="M772.774 267.062 751.639 403.51l-3.088 25.604-17.396 27.225-67.793 106.307-225.978 47.481-146.316-83.457-87.302-164.483 5.852-57.367 26.825-4.699c28.125-5.024 59.99-11.02 94.455-17.664 83.888-16.205 183.059-36.948 278.977-60.932 31.377-7.778 62.428-16.205 92.667-24.632l30.727-8.75z"/><path fill="#FBCA2B" d="M658.809 300.932a171.75 171.75 0 0 1-9.591 78.109 174.06 174.06 0 0 1-52.837 74.706 172.3 172.3 0 0 1-91.692 38.568 174.8 174.8 0 0 1-67.762-5.942 174.5 174.5 0 0 1-60.318-31.347 173.9 173.9 0 0 1-43.685-51.975 173.3 173.3 0 0 1-20.397-64.685 169.5 169.5 0 0 1 3.902-59.636c92.179-17.663 200.941-40.513 306.289-66.765a171.15 171.15 0 0 1 36.091 88.967"/><path fill="#FBCA2B" d="M659.297 541.254 514.606 342.902l255.892 65.469z"/><path fill="#FBCA2B" d="M1046.71 0C804.313 175.827 232.053 313.895 33.226 280.837L.71 351.654c24.06 1.62 54.95 0 91.529.972a97.76 97.76 0 0 1 53.909 17.986 97.3 97.3 0 0 1 34.694 44.89C244.572 575.61 414.299 683.537 593.618 619.04c66.606-23.919 123.343-69.236 161.28-128.82s54.921-130.049 48.277-200.308a72.9 72.9 0 0 1 11.66-46.533 73.3 73.3 0 0 1 38.088-29.308 2041 2041 0 0 0 193.787-75.84zM569.719 552.274a248.8 248.8 0 0 1-189.859-8.694 248 248 0 0 1-77.977-57.335 247.1 247.1 0 0 1-49.995-82.735 242.4 242.4 0 0 1-13.494-60.445 2912.6 2912.6 0 0 0 485.933-89.777 246.58 246.58 0 0 1-18.451 179.731c-28.672 55.447-77.306 98.044-136.157 119.255"/><rect width="168" height="36" x="379.711" y="541.002" fill="#262626" rx="18"/><rect width="168" height="36" x="379.711" y="541.002" stroke="#262626" stroke-width="2" rx="18"/><path fill="#fff" d="M414.805 561.502q-1.05 0-1.665-.36-.6-.36-.765-1.11-.24.435-1.14.825-.885.39-2.265.63t-3 .24q-2.43 0-3.435-.72-1.005-.735-1.005-2.1 0-.975.63-2.865l1.11.36q-.345 1.215-.345 1.785 0 1.8 3.33 1.8 1.74 0 3.045-.225t1.995-.57.69-.69v-1.665l1.275-.105v1.305q0 .855.405 1.29t1.32.435zm-7.35-7.35h2.115v1.41h-4.08v-1.41zm19.975 7.35q-1.74 0-2.295-1.005-.27.51-.72.765-.435.24-.915.24-.615 0-1.065-.285t-.63-.75q-.33.51-.855.78a2.5 2.5 0 0 1-1.125.255q-.72 0-1.26-.285-.54-.3-.72-.855-.36.57-1.095.855t-1.95.285q-.06 0-.12-.18t-.06-.495q0-.51.12-.78.105-.285.24-.285 1.26 0 1.86-.375.6-.39.6-1.23v-.87l1.275-.105v1.11q0 .69.315 1.08.33.39.96.39.57 0 .945-.405.39-.405.39-.975v-.945l1.275-.105v.96q0 .705.285 1.095.285.375.78.375.915 0 .915-1.62v-1.305l1.275-.105v1.305q0 .855.405 1.29.42.435 1.365.435zm2.112-7.47q.99 1.365 1.485 2.145.51.78.735 1.35.225.555.225 1.08 0 .75-.39 1.425-.39.66-1.005.975-.495.27-1.365.39-.855.105-1.785.105-.06 0-.12-.18t-.06-.495q0-.51.12-.78.105-.285.24-.285 1.455 0 2.265-.18t.81-.45q0-.375-.225-.87t-.75-1.275q-.51-.78-1.53-2.175l.345-1.86 6.675-2.94.285 1.44zm7.874-.015q.645.57 1.695 1.41.825.66 1.23 1.05.405.375.645.81t.24.99q0 .645-.3 1.245-.285.6-.855 1.05-.69.555-1.785.9-1.095.33-2.22.33-.9 0-1.365-.495-.45-.495-.45-1.44 0-.825.015-1.14l1.155-.075v.375q0 .555.225.795.24.24.81.24.81 0 1.635-.225t1.365-.54q.54-.33.54-.585 0-.33-.405-.72-.39-.39-1.305-1.095-1.155-.9-1.71-1.41zm9.174 7.485q-1.485 0-2.235-.765-.735-.78-.78-2.4l-.21-8.385 1.545-.12-.015 7.68q-.015 1.11.435 1.68.465.57 1.455.57zm3.537-5.79q.135.72.27 1.68.15.96.15 1.425 0 .675-.345 1.335-.345.645-.93.93-.84.42-2.67.42-.06 0-.12-.18t-.06-.495q0-.51.12-.78.105-.285.24-.285 2.415 0 2.415-.525 0-.405-.15-1.35-.15-.96-.39-1.755zm-2.505 7.455h2.115v1.41h-4.08v-1.41zm-.765 3.555v-1.455h1.68v1.455zm10.406-12.69q1.44 1.2 2.235 2.025t1.14 1.485.345 1.32q0 .825-.435 1.44t-1.17.945q-.675.33-1.635.33-1.095 0-1.635-.525-.54-.54-.54-1.41 0-1.44 1.56-3.57l-.735-.63zm-.39 4.86q0 .375.285.63t.855.255q.66 0 1.185-.18.54-.18.54-.42 0-.375-.375-.87-.36-.51-1.395-1.47a8.5 8.5 0 0 0-.825 1.23q-.27.525-.27.825m14.383 2.61q-1.05 0-1.695-.36-.645-.375-.93-1.185-.63.765-1.725 1.275-1.08.495-2.13.495-.87 0-1.32-.495t-.45-1.44q0-.825.015-1.14.21 0 .615-.045l.54-.03v.375q0 .555.225.795.24.24.78.24.75 0 1.53-.36.795-.375 1.41-.99a41 41 0 0 0-1.275-4.455l1.335-.645q.465 1.515 1.05 4.005.195.9.48 1.38t.69.66 1.035.18zm2.43-7.875q1.41.945 3.405 2.04 1.335.75 1.98 1.185.66.42 1.035.945.39.51.39 1.17 0 .705-.285 1.35-.27.63-.75 1.02t-1.065.39q-.675 0-1.83-.24a15.5 15.5 0 0 1-2.055-.57q-1.455.585-3.255.585-.06 0-.12-.18t-.06-.495q0-.51.12-.78.105-.285.24-.285.39 0 1.02-.03a2.15 2.15 0 0 1-.225-.975q0-.87.48-1.74t1.215-1.38q-.375-.225-.915-.585zm-.255 4.575q0 .78 1.23 1.185.735-.225 1.11-.54t.375-.63q0-.705-.315-1.23t-.825-.525q-.375 0-.735.315t-.6.735-.24.69m2.955 1.515q1.575.42 2.31.42.255 0 .405-.24t.15-.615q0-.42-.465-.78-.45-.375-1.53-.96v.24q0 1.035-.87 1.935m9.476 1.785q-1.485 0-2.235-.765-.735-.78-.78-2.4l-.21-8.385 1.545-.12-.015 7.68q-.015 1.11.435 1.68.465.57 1.455.57zm12.643 0q-1.74 0-2.295-1.005-.27.51-.72.765-.435.24-.915.24-.615 0-1.065-.285t-.63-.75q-.33.51-.855.78a2.5 2.5 0 0 1-1.125.255q-.72 0-1.26-.285-.54-.3-.72-.855-.36.57-1.095.855t-1.95.285q-.06 0-.12-.18t-.06-.495q0-.51.12-.78.105-.285.24-.285 1.26 0 1.86-.375.6-.39.6-1.23v-.87l1.275-.105v1.11q0 .69.315 1.08.33.39.96.39.57 0 .945-.405.39-.405.39-.975v-.945l1.275-.105v.96q0 .705.285 1.095.285.375.78.375.915 0 .915-1.62v-1.305l1.275-.105v1.305q0 .855.405 1.29.42.435 1.365.435zm-6.465-8.52v-1.44h1.68v1.44zm.765.69h2.115v1.41h-4.08v-1.41zm11.141 1.83q1.23 0 1.59 1.305.36 1.23.36 2.55 0 .48-.24.99t-.63.855q-.375.33-.78.33-.48 0-1.125-.165a5.4 5.4 0 0 1-1.185-.495q-.555-.33-.825-.735-.54.78-1.14 1.08-.6.285-1.455.285-.06 0-.12-.18t-.06-.495q0-.51.12-.78.105-.285.24-.285.51 0 .855-.12.36-.12.66-.45.315-.33.645-.975.555-1.08.975-1.635.435-.57.915-.825.495-.255 1.2-.255m-2.055 3.195q.3.45 1.095.78.81.315 1.44.315.09 0 .135-.06.045-.075.045-.27 0-.27-.105-.9-.09-.63-.21-1.005-.195-.525-.6-.525-.585 0-.96.345-.36.33-.795 1.215zM514.211 551.502v15l13-7.497zm5.873 4.984a6.7 6.7 0 0 1-3.657 2.25.698.698 0 0 1-.831-.693v-2.955a.7.7 0 0 1 .348-.597.696.696 0 0 1 .691.001zm-4.488 3.766a8.06 8.06 0 0 0 5.7-3.067l2.078 1.218a.693.693 0 0 1 0 1.198l-6.767 3.904a.696.696 0 0 1-1.039-.596z"/><path fill="#000" d="M388.156 475q-1.23 0-1.695-.435a3.95 3.95 0 0 1-.735 1.815q-.585.825-1.62 1.395-1.56.84-4.05 1.275l-.225-.69q-.045-.195-.15-.51 3.375-.6 4.575-1.485t1.2-1.89q0-.495-.18-1.53-.18-1.05-.42-1.995l1.17-.375q.21 1.395.435 2.04.225.63.63.87t1.215.24zm1.806-7.35a83 83 0 0 1 1.635 2.385q.51.765.75 1.335t.24 1.08q0 .615-.315 1.17t-.81.855q-.87.525-3.3.525-.06 0-.105-.12a1 1 0 0 1-.045-.33q0-.33.09-.57.09-.255.21-.255 1.575 0 2.43-.18.87-.195.87-.495 0-.45-.24-.99-.225-.555-.765-1.38t-1.62-2.355l.3-1.575 6.75-3.075.225 1.125zm7.651 2.25q.87 0 1.455.66.6.645.885 1.62t.285 1.92q0 1.35-.435 2.16-.42.825-1.44 1.44-1.665.99-5.55 1.35l-.3-1.275q2.625-.255 4.095-.63t2.055-.915q.6-.525.6-1.305v-.105q-.915.255-2.175.255-.93 0-1.41-.435-.465-.45-.465-1.215 0-.945.3-1.74.315-.81.855-1.29.555-.495 1.245-.495m-1.425 3q0 .405.285.66.3.24.84.24.975 0 1.845-.18-.18-1.11-.645-1.77-.45-.675-1.05-.675-.555 0-.915.525-.36.51-.36 1.2m10.572 2.1q-1.17 0-1.65-.39-.015 1.185-.405 2.01-.375.84-1.395 1.455-1.005.615-2.85 1.05l-.45-1.2q1.65-.435 2.535-.885.885-.435 1.2-.9.315-.45.315-.99 0-.945-.18-2.055-.165-1.125-.42-2.145l1.17-.375q.21 1.395.435 2.04.225.63.63.87t1.215.24zm3.26-5.25q.135.69.27 1.65.15.945.15 1.35 0 .54-.285 1.08-.285.525-.765.765-.825.405-2.625.405-.06 0-.105-.12a1 1 0 0 1-.045-.33q0-.33.09-.57.09-.255.21-.255 2.475 0 2.475-.525 0-.435-.15-1.38-.135-.96-.375-1.725zm-2.73 8.55v-1.5h1.65v1.5zm17.559-10.8V466h1.65v1.5zm4.05 7.5q-2.46 0-3.675-.48-1.83.705-5.025.705-2.355 0-3.36-.675-.99-.69-.99-1.95 0-.825.6-2.625l.87.3q-.345 1.23-.345 1.8 0 1.875 3.45 1.875 1.755 0 3.18-.21-.405-.435-.405-1.14 0-.795.36-1.635a4.1 4.1 0 0 1 .945-1.395q.6-.57 1.245-.57.63 0 1.14.36t.81.96.3 1.305q0 1.155-1.05 2.04.735.06 2.1.06zm-4.725-2.775q0 .405.3.765.315.345.84.495.795-.315 1.245-.72.465-.42.465-.69 0-.42-.21-.84a1.8 1.8 0 0 0-.555-.69q-.345-.27-.735-.27-.315 0-.63.345a2.8 2.8 0 0 0-.525.795q-.195.465-.195.81m7.98-2.475q.135.69.27 1.65.15.945.15 1.35 0 .54-.285 1.08-.285.525-.765.765-.825.405-2.625.405-.06 0-.105-.12a1 1 0 0 1-.045-.33q0-.33.09-.57.09-.255.21-.255 2.475 0 2.475-.525 0-.33-.18-1.35-.165-1.035-.345-1.755zm-3.03 7.05h1.95v1.2h-3.75v-1.2zm9.98-1.8q-1.17 0-1.65-.39-.015 1.185-.405 2.01-.375.84-1.395 1.455-1.005.615-2.85 1.05l-.45-1.2q1.65-.435 2.535-.885.885-.435 1.2-.9.315-.45.315-.99 0-.945-.18-2.055-.165-1.125-.42-2.145l1.17-.375q.21 1.395.435 2.04.225.63.63.87t1.215.24zm9.005 0q-1.605 0-2.64-.225a4.2 4.2 0 0 1-1.815-.885q-1.11.615-2.22.87-1.095.24-2.325.24-.06 0-.105-.12a1 1 0 0 1-.045-.33q0-.33.09-.57.09-.255.21-.255 1.02 0 1.845-.135a7.8 7.8 0 0 0 1.575-.45 20 20 0 0 1-1.635-2.175q-.27.09-.51.21l-.3-.975q.615-.39 1.71-.645t2.19-.255q1.545 0 2.385.315.84.3.84.81 0 .225-.15.825-.24.315-.915.915-.66.6-1.335 1.125.705.24 1.485.345.795.09 1.815.09zm-6.045-4.305q.975 1.29 1.875 2.085.495-.33 1.185-.87t1.035-.885v-.225q-.795-.3-2.325-.3-.84 0-1.77.195m9.294-.945q.135.69.27 1.65.15.945.15 1.35 0 .54-.285 1.08-.285.525-.765.765-.825.405-2.625.405-.06 0-.105-.12a1 1 0 0 1-.045-.33q0-.33.09-.57.09-.255.21-.255 2.475 0 2.475-.525 0-.435-.15-1.38-.135-.96-.375-1.725zm-1.23-2.7h1.95v1.2h-3.75v-1.2zm12.309 2.925a23 23 0 0 0-1.575-.075q-.585 0-1.035.12-.45.105-.615.33-.225.285-.225.75 0 .825.48 1.35t1.17.525q.48 0 1.11-.15.645-.15 1.89-.525l.15 1.2q-3.06.615-4.305 1.725t-1.245 2.475q0 2.625 4.125 2.625 1.125 0 2.775-.12l-.075 1.095q-1.395.3-3.225.3-2.415 0-3.54-.915-1.11-.9-1.11-2.685 0-1.17.54-2.25t1.575-1.755q-1.365-.69-1.365-2.52 0-1.29.825-2.07t2.175-.78q.9 0 1.8.225zm-2.925-2.775v-1.5h1.65v1.5zm7.056 7.875-.225-11.55 1.2-.075V475zm7.355-.075q-1.23 0-1.695-.435a3.95 3.95 0 0 1-.735 1.815q-.585.825-1.62 1.395-1.56.84-4.05 1.275l-.225-.69q-.045-.195-.15-.51 3.375-.6 4.575-1.485t1.2-1.89q0-.495-.18-1.53-.18-1.05-.42-1.995l1.17-.375q.21 1.395.435 2.04.225.63.63.87t1.215.24zm10.505-5.1q.12.645.21 1.605t.09 1.62q0 .855-.45 1.365t-1.05.51q-.795 0-1.395-.285-.6-.3-.87-.84-.33.555-.855.84t-1.155.285q-.69 0-1.23-.285-.525-.285-.72-.84-.72 1.125-3.075 1.125-.06 0-.105-.12a1 1 0 0 1-.045-.33q0-.33.09-.57.09-.255.21-.255 1.35 0 1.98-.405.645-.42.645-1.32v-.81l1.05-.09v1.125q0 .69.345 1.095t1.005.405q.6 0 1.005-.42.42-.435.42-1.005v-.96l1.05-.09v.975q0 .675.465 1.095.48.405 1.26.405.165 0 .27-.105t.105-.27q0-.42-.135-1.38-.12-.975-.27-1.725zm12.754 5.1q-1.17 0-1.815-.405-.63-.405-.915-1.38-.51.165-1.23.27-.705.09-1.365.09-.9 0-1.32-.315a.98.98 0 0 1-.405-.81q0-1.035 1.32-2.28.84-.78 2.4-1.77l-.12-1.155 1.125-.27.45 4.575q.12 1.17.555 1.68.435.495 1.47.495zm-6-3.15q0 .225.3.345.3.105.825.105.375 0 .915-.06.555-.075 1.02-.165-.105-1.215-.27-2.55-1.245.795-2.025 1.44-.765.63-.765.885m9.248-2.1q.135.69.27 1.65.15.945.15 1.35 0 .54-.285 1.08-.285.525-.765.765-.825.405-2.625.405-.06 0-.105-.12a1 1 0 0 1-.045-.33q0-.33.09-.57.09-.255.21-.255 2.475 0 2.475-.525 0-.435-.15-1.38-.135-.96-.375-1.725zm-2.73 8.55v-1.5h1.65v1.5zm10.735-7.275q-.54.48-.87 1.035t-.33.915q.12-.03.3-.03.39 0 .645.27t.255.66q0 .495-.33.81-.315.315-.765.315-.48 0-.78-.36t-.3-.915q0-.81.405-1.68.405-.885 1.245-1.62zM517.88 475q-1.17 0-1.815-.405-.63-.405-.915-1.38-.51.165-1.23.27-.705.09-1.365.09-.9 0-1.32-.315a.98.98 0 0 1-.405-.81q0-1.035 1.32-2.28.84-.78 2.4-1.77l-.12-1.155 1.125-.27.45 4.575q.12 1.17.555 1.68.435.495 1.47.495zm-6-3.15q0 .225.3.345.3.105.825.105.375 0 .915-.06.555-.075 1.02-.165-.105-1.215-.27-2.55-1.245.795-2.025 1.44-.765.63-.765.885m11.768-1.5a23 23 0 0 0-1.575-.075q-.585 0-1.035.12-.45.105-.615.33-.225.285-.225.75 0 .825.48 1.35t1.17.525q.525 0 1.11-.105t1.89-.42l.15 1.125q-2.07.585-3.78.825a25 25 0 0 1-3.345.225q-.06 0-.105-.12a1 1 0 0 1-.045-.33q0-.33.09-.57.09-.255.21-.255.915 0 1.695-.06-.57-.645-.57-1.815 0-1.29.825-2.07t2.175-.78q.9 0 1.8.225zm8.718 4.65q-.105.93-.54 1.56-.435.645-1.275 1.14-1.665.99-5.55 1.35l-.3-1.275q2.58-.255 4.035-.63 1.455-.36 2.07-.87t.645-1.26q-1.14.06-2.175.06-.93 0-1.41-.435-.465-.45-.465-1.215 0-.945.3-1.74.315-.81.855-1.29.555-.495 1.245-.495.81 0 1.38.585.585.57.885 1.455.3.87.345 1.785h1.065l-.15 1.275zm-3.99-2.1q0 .405.285.66.3.24.84.24 1.02 0 1.86-.06-.165-1.14-.63-1.845-.465-.72-1.08-.72-.555 0-.915.525-.36.51-.36 1.2m13.877 2.1q-1.575 0-2.175-.81-.18.435-.525.735t-.75.3q-.78 0-1.635-.465-.84-.48-1.26-1.095-.555.81-1.11 1.08-.555.255-1.47.255-.06 0-.105-.12a1 1 0 0 1-.045-.33q0-.33.09-.57.09-.255.21-.255.585 0 .96-.135.39-.135.705-.48t.66-1.035q.585-1.17 1.35-1.665a3.04 3.04 0 0 1 1.725-.51q.6 0 .885.255.3.24.39.945.15 1.11.39 1.665.24.54.66.75t1.2.21zm-5.7-2.43q.375.555 1.155.975.78.405 1.32.405.225 0 .225-.75 0-1.17-.12-1.635t-.48-.465q-.675 0-1.155.3-.465.285-.795.9zm8.62-3.42q.315 0 .735.15t1.32.51q1.275.54 2.355.9 1.095.345 2.265.465l-.225 1.05q-.69 0-1.62.405.18.585.705.84t1.74.255h.3l-.15 1.275h-.3q-1.47 0-2.175-.435t-.945-1.545l-.57.27q-1.08.525-1.935.87t-1.995.6q-1.125.24-2.43.24-.06 0-.105-.12a1 1 0 0 1-.045-.33q0-.33.09-.57.09-.255.21-.255 1.755 0 3.285-.48 1.545-.48 3.495-1.38-1.485-.45-2.85-1.035-.525-.225-.81-.315-.27-.09-.495-.09t-.45.24q-.21.225-.6.885l-.75-.525q.585-1.05.99-1.455.42-.42.96-.42m-.075 9.15v-1.5h1.65v1.5zm12.832-8.775q.555 0 .9.285.36.27.525.84.375 1.245.375 2.625 0 .345-.21.75-.195.405-.525.69-.315.285-.66.285-.435 0-1.065-.165-.615-.165-1.185-.48-.555-.315-.825-.735-.54.81-1.14 1.095t-1.515.285q-.06 0-.105-.12a1 1 0 0 1-.045-.33q0-.33.09-.57.09-.255.21-.255.525 0 .885-.12.375-.12.705-.45.33-.345.66-1.005.51-1.035.915-1.575.405-.555.87-.795.465-.255 1.14-.255m-2.07 3.03q.345.51 1.17.84t1.47.33q.09 0 .12-.075.045-.075.045-.285 0-.3-.105-1.005t-.255-1.11a.87.87 0 0 0-.24-.375q-.15-.15-.36-.15-.555 0-.945.36-.375.345-.78 1.215zm13.697 1.545v-1.5h1.65v1.5zm7.95.9q-1.47 0-1.875-.435-.015 1.17-.315 1.83-.285.675-.885 1.155-.84.66-2.355 1.155-1.5.495-2.895.495-2.04 0-3.045-.825t-1.005-2.325q0-1.485.75-4.035l.945.27q-.285 1.035-.435 1.905-.135.87-.135 1.41 0 1.08.825 1.695.825.63 2.325.63.96 0 2.025-.27a9.6 9.6 0 0 0 1.905-.675q.825-.39 1.095-.75.15-.21.15-.78 0-.795-.18-2.1-.18-1.32-.42-2.475l1.17-.375q.225 1.47.465 2.13t.675.885q.45.21 1.365.21zm3.255-5.25q.135.69.27 1.65.15.945.15 1.35 0 .54-.285 1.08-.285.525-.765.765-.825.405-2.625.405-.06 0-.105-.12a1 1 0 0 1-.045-.33q0-.33.09-.57.09-.255.21-.255 2.475 0 2.475-.525 0-.435-.15-1.38-.135-.96-.375-1.725zm-2.28 7.05h1.95v1.2h-3.75v-1.2zm5.332-1.725-.225-11.55 1.2-.075V475zm10.176-4.575q.24 1.155.36 2.085t.12 1.365q0 1.17-.6 2.16-.6 1.005-1.8 1.665-1.56.84-4.05 1.275l-.225-.69q-.045-.195-.15-.51 3.375-.6 4.575-1.485t1.2-1.89q0-.48-.18-1.53t-.42-2.07zm-1.47-2.1v-1.5h1.65v1.5zm4.58 6.675-.225-11.55 1.2-.075V475zm19.731-.075q-1.035 0-1.635-.36t-.765-1.14q-.195.45-1.11.855-.915.39-2.355.63t-3.135.24q-2.355 0-3.36-.675-.99-.69-.99-1.95 0-.825.6-2.625l.87.3q-.345 1.23-.345 1.8 0 1.875 3.45 1.875 1.875 0 3.255-.24t2.1-.6q.72-.375.72-.735v-1.635l1.05-.09V472q0 .84.42 1.29.42.435 1.38.435zm-7.425-6.825h1.95v1.2h-3.75v-1.2zM625.763 475q-1.575 0-2.175-.81-.18.435-.525.735t-.75.3q-.78 0-1.635-.465-.84-.48-1.26-1.095-.555.81-1.11 1.08-.555.255-1.47.255-.06 0-.105-.12a1 1 0 0 1-.045-.33q0-.33.09-.57.09-.255.21-.255.585 0 .96-.135.39-.135.705-.48t.66-1.035q.585-1.17 1.35-1.665a3.04 3.04 0 0 1 1.725-.51q.6 0 .885.255.3.24.39.945.15 1.11.39 1.665.24.54.66.75t1.2.21zm-5.7-2.43q.375.555 1.155.975.78.405 1.32.405.225 0 .225-.75 0-1.17-.12-1.635t-.48-.465q-.675 0-1.155.3-.465.285-.795.9zm18.146 2.43q-1.68 0-2.205-.975-.285.495-.735.735-.435.24-.885.24-.585 0-1.035-.27a1.55 1.55 0 0 1-.615-.75q-.345.495-.855.765-.495.255-1.095.255-.69 0-1.23-.285-.525-.285-.72-.84-.72 1.125-3.075 1.125-.06 0-.105-.12a1 1 0 0 1-.045-.33q0-.33.09-.57.09-.255.21-.255 1.35 0 1.98-.405.645-.42.645-1.32v-.81l1.05-.09v1.125q0 .69.345 1.095t1.005.405q.6 0 1.005-.42.42-.435.42-1.005v-.96l1.05-.09v.975q0 .72.3 1.11.315.39.825.39.465 0 .72-.405.255-.42.255-1.245v-1.335l1.05-.09V472q0 .84.42 1.29.42.435 1.38.435zm3.451-7.725q1.245 0 1.89 1.305.66 1.305.66 3.42 0 .81-.33 1.545-.315.735-.945 1.005-.495.225-1.44.345-.945.105-2.16.105h-1.125q-.06 0-.105-.12a1 1 0 0 1-.045-.33q0-.33.09-.57.09-.255.21-.255h1.35q2.385 0 3.225-.375.3-.135.3-.75 0-.42-.015-.615-1.17.24-2.085.24t-1.395-.435-.48-1.14q0-.87.3-1.65.315-.78.855-1.245.555-.48 1.245-.48m-1.44 2.85q0 .405.3.66.3.24.84.24.81 0 1.755-.165-.195-1.14-.63-1.755-.435-.63-1.05-.63-.51 0-.87.495-.345.48-.345 1.155m1.29-5.775h1.95v1.2h-3.75v-1.2zm12.524 9.75v-1.5h1.65v1.5zm7.95.9q-1.47 0-1.875-.435-.015 1.17-.315 1.83-.285.675-.885 1.155-.84.66-2.355 1.155-1.5.495-2.895.495-2.04 0-3.045-.825t-1.005-2.325q0-1.485.75-4.035l.945.27q-.285 1.035-.435 1.905-.135.87-.135 1.41 0 1.08.825 1.695.825.63 2.325.63.96 0 2.025-.27a9.6 9.6 0 0 0 1.905-.675q.825-.39 1.095-.75.15-.21.15-.78 0-.795-.18-2.1-.18-1.32-.42-2.475l1.17-.375q.225 1.47.465 2.13t.675.885q.45.21 1.365.21zm6.976 0q-.96 0-1.545-.3a1.63 1.63 0 0 1-.78-.96q-.36.63-1.305.945-.93.315-2.745.315h-.6q-.06 0-.105-.12a1 1 0 0 1-.045-.33q0-.33.09-.57.09-.255.21-.255h.6q1.335 0 2.1-.18.78-.18 1.095-.555.33-.375.33-.99v-.285l1.05-.09V472q0 .84.42 1.29.42.435 1.38.435zm-4.35 1.8h1.95v1.2h-3.75v-1.2zm7.347-4.05q0 .54-.225.99-.21.45-.6.735-.705.525-2.175.525-.06 0-.105-.12a1 1 0 0 1-.045-.33q0-.33.09-.57.09-.255.21-.255 1.845 0 1.83-.75l-.18-9.45 1.2-.075zm4.797-2.85q.87 0 1.455.66.6.645.885 1.62t.285 1.92q0 1.35-.435 2.16-.42.825-1.44 1.44-1.665.99-5.55 1.35l-.3-1.275q2.625-.255 4.095-.63t2.055-.915q.6-.525.6-1.305v-.105q-.915.255-2.175.255-.93 0-1.41-.435-.465-.45-.465-1.215 0-.945.3-1.74.315-.81.855-1.29.555-.495 1.245-.495m-1.425 3q0 .405.285.66.3.24.84.24.975 0 1.845-.18-.18-1.11-.645-1.77-.45-.675-1.05-.675-.555 0-.915.525-.36.51-.36 1.2m6.673 2.175-.225-11.55 1.2-.075V475zm10.177-4.575q.24 1.155.36 2.085t.12 1.365q0 1.17-.6 2.16-.6 1.005-1.8 1.665-1.56.84-4.05 1.275l-.225-.69q-.045-.195-.15-.51 3.375-.6 4.575-1.485t1.2-1.89q0-.48-.18-1.53t-.42-2.07zm5.659-2.325q.51.465 1.74 1.47.765.615 1.14.975.375.345.585.735.21.375.21.87 0 .465-.24.945-.225.465-.66.84-.675.57-1.815.93t-2.31.36q-.78 0-1.185-.435-.39-.435-.39-1.29v-.825l.975-.075v.3q0 .57.21.81t.765.24q.78 0 1.635-.24.87-.24 1.455-.585t.585-.6q0-.36-.405-.765t-1.305-1.125a24 24 0 0 1-1.665-1.41zm-304.483 33.9-.225-11.55 1.2-.075V502zm5.225-4.575q.24 1.155.36 2.085t.12 1.365q0 1.17-.6 2.16-.6 1.005-1.8 1.665-1.56.84-4.05 1.275l-.225-.69q-.045-.195-.15-.51 3.375-.6 4.575-1.485t1.2-1.89q0-.48-.18-1.53t-.42-2.07zm13.763 4.5q-1.005 0-1.65-.36-.63-.36-.93-1.155-.63.78-1.725 1.26t-2.145.48q-.78 0-1.185-.435-.39-.435-.39-1.29v-.825l.975-.075v.3q0 .57.21.81t.765.24q.81 0 1.62-.375a5.4 5.4 0 0 0 1.485-1.065q-.435-1.995-1.23-4.41l1.05-.525q.57 1.785 1.05 3.975.195.885.48 1.365.3.465.705.645.42.165 1.065.165zm5.778 0q-.96 0-1.545-.3a1.63 1.63 0 0 1-.78-.96q-.33.615-1.125.945-.795.315-2.025.315h-.3q-.06 0-.105-.12a1 1 0 0 1-.045-.33q0-.33.09-.57.09-.255.21-.255h.3q1.35 0 1.98-.405.645-.42.645-1.32v-1.26l1.05-.09V499q0 .84.42 1.29.42.435 1.38.435zm-3.75-6.15v-1.5h1.65v1.5zm5.547-1.2a83 83 0 0 1 1.635 2.385q.51.765.75 1.335t.24 1.08q0 .615-.315 1.17t-.81.855q-.87.525-3.3.525-.06 0-.105-.12a1 1 0 0 1-.045-.33q0-.33.09-.57.09-.255.21-.255 1.575 0 2.43-.18.87-.195.87-.495 0-.45-.24-.99-.225-.555-.765-1.38t-1.62-2.355l.3-1.575 6.75-3.075.225 1.125zm16.716 7.35q.24.255.24.675 0 .555-.255 1.08-.24.525-.795.945-.945.72-2.565 1.185-1.605.465-3.135.465-2.04 0-3.045-.825t-1.005-2.325q0-1.485.75-4.035l.945.27q-.285 1.035-.435 1.905-.135.87-.135 1.41 0 1.08.825 1.695.825.63 2.325.63 1.335 0 2.595-.33 1.275-.33 2.07-.78.81-.45.81-.765 0-.27-.315-.48-.315-.195-1.095-.405-.78-.195-2.265-.465l.3-1.2q1.035.045 1.89.06t1.86.015h1.425l-.15 1.275zm6.159-5.475q.555 0 .9.285.36.27.525.84.375 1.245.375 2.625 0 .345-.21.75-.195.405-.525.69-.315.285-.66.285-.435 0-1.065-.165-.615-.165-1.185-.48-.555-.315-.825-.735-.54.81-1.14 1.095t-1.515.285q-.06 0-.105-.12a1 1 0 0 1-.045-.33q0-.33.09-.57.09-.255.21-.255.525 0 .885-.12.375-.12.705-.45.33-.345.66-1.005.51-1.035.915-1.575.405-.555.87-.795.465-.255 1.14-.255m-2.07 3.03q.345.51 1.17.84t1.47.33q.09 0 .12-.075.045-.075.045-.285 0-.3-.105-1.005t-.255-1.11a.87.87 0 0 0-.24-.375q-.15-.15-.36-.15-.555 0-.945.36-.375.345-.78 1.215zM452.995 502q-1.44 0-2.115-.72-.675-.735-.705-2.28l-.18-8.475 1.2-.075v8.025q0 2.25 1.95 2.25zm6.901 0q-2.445 0-3.645-.48-1.32.48-3.255.48-.06 0-.105-.12a1 1 0 0 1-.045-.33q0-.33.09-.57.09-.255.21-.255.825 0 1.38-.06-.33-.42-.33-1.065 0-.795.36-1.635a4.1 4.1 0 0 1 .945-1.395q.6-.57 1.245-.57.63 0 1.14.36t.81.96.3 1.305q0 1.155-1.05 2.04.735.06 2.1.06zm-4.725-2.775q0 .405.3.765.315.345.84.495.795-.315 1.245-.72.465-.42.465-.69 0-.42-.21-.84a1.8 1.8 0 0 0-.555-.69q-.345-.27-.735-.27-.315 0-.63.345a2.8 2.8 0 0 0-.525.795q-.195.465-.195.81m.525-4.725V493h1.65v1.5zm7.454 2.25q.135.69.27 1.65.15.945.15 1.35 0 .54-.285 1.08-.285.525-.765.765-.825.405-2.625.405-.06 0-.105-.12a1 1 0 0 1-.045-.33q0-.33.09-.57.09-.255.21-.255 2.475 0 2.475-.525 0-.435-.15-1.38-.135-.96-.375-1.725zm-2.28 7.05h1.95v1.2h-3.75v-1.2zm5.331-1.725-.225-11.55 1.2-.075V502zm17.812-5.55q.135.69.27 1.65.15.945.15 1.35 0 .45-.27.915-.255.45-.63.66-.945.525-2.925.825-1.965.3-3.675.3-2.355 0-3.36-.675-.99-.69-.99-1.95 0-.825.6-2.625l.87.3q-.345 1.23-.345 1.8 0 1.875 3.45 1.875 1.635 0 3.06-.18 1.44-.18 2.295-.45.87-.27.87-.495t-.18-1.245a27 27 0 0 0-.345-1.71zm-5.655-1.35h1.95v1.2h-3.75v-1.2zm7.956-3.825q1.155 1.995 2.025 4.08t1.335 3.885q.84-.69 1.215-1.605.39-.93.375-2.235l-.075-4.875 1.125-.15v7.575q0 1.395.45 2.055.465.645 1.425.645l-.15 1.275q-.87 0-1.44-.27t-.9-.945q-.315-.69-.36-1.905v-.075q-.255.615-.675 1.095-.615.675-1.68 1.26-1.05.585-2.67 1.14l-.525-1.2q1.92-.585 3.03-1.215-.465-1.725-1.35-3.705t-2.13-4.005zm13.051 5.175q.555 0 .9.285.36.27.525.84.375 1.245.375 2.625 0 .345-.21.75-.195.405-.525.69-.315.285-.66.285-.435 0-1.065-.165-.615-.165-1.185-.48-.555-.315-.825-.735-.54.81-1.14 1.095t-1.515.285q-.06 0-.105-.12a1 1 0 0 1-.045-.33q0-.33.09-.57.09-.255.21-.255.525 0 .885-.12.375-.12.705-.45.33-.345.66-1.005.51-1.035.915-1.575.405-.555.87-.795.465-.255 1.14-.255m-2.07 3.03q.345.51 1.17.84t1.47.33q.09 0 .12-.075.045-.075.045-.285 0-.3-.105-1.005t-.255-1.11a.87.87 0 0 0-.24-.375q-.15-.15-.36-.15-.555 0-.945.36-.375.345-.78 1.215zm9.269 2.445q-1.44 0-2.115-.72-.675-.735-.705-2.28l-.18-8.475 1.2-.075v8.025q0 2.25 1.95 2.25zm9.001 0q-1.605 0-2.64-.225a4.2 4.2 0 0 1-1.815-.885q-1.11.615-2.22.87-1.095.24-2.325.24-.06 0-.105-.12a1 1 0 0 1-.045-.33q0-.33.09-.57.09-.255.21-.255 1.02 0 1.845-.135a7.8 7.8 0 0 0 1.575-.45 20 20 0 0 1-1.635-2.175q-.27.09-.51.21l-.3-.975q.615-.39 1.71-.645t2.19-.255q1.545 0 2.385.315.84.3.84.81 0 .225-.15.825-.24.315-.915.915-.66.6-1.335 1.125.705.24 1.485.345.795.09 1.815.09zm-6.045-4.305q.975 1.29 1.875 2.085.495-.33 1.185-.87t1.035-.885v-.225q-.795-.3-2.325-.3-.84 0-1.77.195m11.364-1.17q.555 0 .9.285.36.27.525.84.375 1.245.375 2.625 0 .345-.21.75-.195.405-.525.69-.315.285-.66.285-.435 0-1.065-.165-.615-.165-1.185-.48-.555-.315-.825-.735-.54.81-1.14 1.095t-1.515.285q-.06 0-.105-.12a1 1 0 0 1-.045-.33q0-.33.09-.57.09-.255.21-.255.525 0 .885-.12.375-.12.705-.45.33-.345.66-1.005.51-1.035.915-1.575.405-.555.87-.795.465-.255 1.14-.255m-2.07 3.03q.345.51 1.17.84t1.47.33q.09 0 .12-.075.045-.075.045-.285 0-.3-.105-1.005t-.255-1.11a.87.87 0 0 0-.24-.375q-.15-.15-.36-.15-.555 0-.945.36-.375.345-.78 1.215zm19.847-3.18q-.3-.345-.54-.51a.9.9 0 0 0-.51-.165q-.465 0-1.11.555-.63.54-1.11 1.26-.48.705-.48 1.11 0 .24.24.42.24.165.735.255l2.025.375q.525.09.75.435.225.33.225.765 0 .495-.27 1.035-.255.54-.78.99-1.02.87-2.595 1.335-1.56.465-3.105.465-2.04 0-3.045-.825t-1.005-2.325q0-1.485.75-4.035l.945.27q-.285 1.035-.435 1.905-.135.87-.135 1.41 0 1.08.825 1.695.825.63 2.325.63 1.38 0 2.64-.375t2.04-.87q.795-.495.795-.78 0-.3-.825-.45l-1.65-.3q-.81-.15-1.155-.525t-.345-.975q0-.945.645-2.055.645-1.125 1.59-1.89.945-.78 1.74-.78.51 0 .915.3.405.285.735.9zm6.224 5.625q-1.44 0-2.115-.72-.675-.735-.705-2.28l-.18-8.475 1.2-.075v8.025q0 2.25 1.95 2.25zm5.775 0q-.96 0-1.545-.3a1.63 1.63 0 0 1-.78-.96q-.33.615-1.125.945-.795.315-2.025.315h-.3q-.06 0-.105-.12a1 1 0 0 1-.045-.33q0-.33.09-.57.09-.255.21-.255h.3q1.35 0 1.98-.405.645-.42.645-1.32v-1.26l1.05-.09V499q0 .84.42 1.29.42.435 1.38.435zm-4.65 1.8h1.95v1.2h-3.75v-1.2zm7.902-7.05q.135.69.27 1.65.15.945.15 1.35 0 .54-.285 1.08-.285.525-.765.765-.825.405-2.625.405-.06 0-.105-.12a1 1 0 0 1-.045-.33q0-.33.09-.57.09-.255.21-.255 2.475 0 2.475-.525 0-.435-.15-1.38-.135-.96-.375-1.725zm-1.68-1.5v-1.5h1.65v1.5zm7.281-.075q.51.465 1.74 1.47.765.615 1.14.975.375.345.585.735.21.375.21.87 0 .465-.24.945-.225.465-.66.84-.675.57-1.815.93t-2.31.36q-.78 0-1.185-.435-.39-.435-.39-1.29v-.825l.975-.075v.3q0 .57.21.81t.765.24q.78 0 1.635-.24.87-.24 1.455-.585t.585-.6q0-.36-.405-.765t-1.305-1.125a24 24 0 0 1-1.665-1.41zm12.871 2.325q.24 1.155.36 2.085t.12 1.365q0 1.17-.6 2.16-.6 1.005-1.8 1.665-1.56.84-4.05 1.275l-.225-.69q-.045-.195-.15-.51 3.375-.6 4.575-1.485t1.2-1.89q0-.48-.18-1.53t-.42-2.07zm5.659-2.325q.51.465 1.74 1.47.765.615 1.14.975.375.345.585.735.21.375.21.87 0 .465-.24.945-.225.465-.66.84-.675.57-1.815.93t-2.31.36q-.78 0-1.185-.435-.39-.435-.39-1.29v-.825l.975-.075v.3q0 .57.21.81t.765.24q.78 0 1.635-.24.87-.24 1.455-.585t.585-.6q0-.36-.405-.765t-1.305-1.125a24 24 0 0 1-1.665-1.41zM594.169 502q-1.17 0-1.815-.405-.63-.405-.915-1.38-.51.165-1.23.27-.705.09-1.365.09-.9 0-1.32-.315a.98.98 0 0 1-.405-.81q0-1.035 1.32-2.28.84-.78 2.4-1.77l-.12-1.155 1.125-.27.45 4.575q.12 1.17.555 1.68.435.495 1.47.495zm-6-3.15q0 .225.3.345.3.105.825.105.375 0 .915-.06.555-.075 1.02-.165-.105-1.215-.27-2.55-1.245.795-2.025 1.44-.765.63-.765.885m7.794-4.2a83 83 0 0 1 1.635 2.385q.51.765.75 1.335t.24 1.08q0 .615-.316 1.17-.314.555-.809.855-.87.525-3.301.525-.06 0-.105-.12a1 1 0 0 1-.045-.33q0-.33.09-.57.09-.255.21-.255 1.576 0 2.431-.18.87-.195.87-.495 0-.45-.24-.99-.225-.555-.765-1.38t-1.62-2.355l.3-1.575 6.75-3.075.225 1.125zm19.719 7.35q.24.255.24.675 0 .555-.255 1.08-.24.525-.795.945-.945.72-2.565 1.185-1.605.465-3.135.465-2.04 0-3.045-.825t-1.005-2.325q0-1.485.75-4.035l.945.27q-.285 1.035-.435 1.905-.135.87-.135 1.41 0 1.08.825 1.695.825.63 2.325.63 1.335 0 2.595-.33 1.275-.33 2.07-.78.81-.45.81-.765 0-.27-.315-.48-.315-.195-1.095-.405-.78-.195-2.265-.465l.3-1.2q1.035.045 1.89.06t1.86.015h1.425l-.15 1.275zm13.284 0q-1.68 0-2.205-.975-.285.495-.735.735-.435.24-.885.24-.585 0-1.035-.27a1.55 1.55 0 0 1-.615-.75q-.345.495-.855.765-.495.255-1.095.255-.69 0-1.23-.285-.525-.285-.72-.84-.72 1.125-3.075 1.125-.06 0-.105-.12a1 1 0 0 1-.045-.33q0-.33.09-.57.09-.255.21-.255 1.35 0 1.98-.405.645-.42.645-1.32v-.81l1.05-.09v1.125q0 .69.345 1.095t1.005.405q.6 0 1.005-.42.42-.435.42-1.005v-.96l1.05-.09v.975q0 .72.3 1.11.315.39.825.39.465 0 .72-.405.255-.42.255-1.245v-1.335l1.05-.09V499q0 .84.42 1.29.42.435 1.38.435zm-6.225-8.025V492.7h1.5v1.275zm.675.675h1.95v1.2h-3.75v-1.2zm12.451 7.35q-2.445 0-3.645-.48-1.32.48-3.255.48-.06 0-.105-.12a1 1 0 0 1-.045-.33q0-.33.09-.57.09-.255.21-.255.825 0 1.38-.06-.33-.42-.33-1.065 0-.795.36-1.635a4.1 4.1 0 0 1 .945-1.395q.6-.57 1.245-.57.63 0 1.14.36t.81.96.3 1.305q0 1.155-1.05 2.04.735.06 2.1.06zm-4.725-2.775q0 .405.3.765.315.345.84.495.795-.315 1.245-.72.465-.42.465-.69 0-.42-.21-.84a1.8 1.8 0 0 0-.555-.69q-.345-.27-.735-.27-.315 0-.63.345a2.8 2.8 0 0 0-.525.795q-.195.465-.195.81m1.275-5.925h1.95v1.2h-3.75v-1.2zm6.705 3.45q.135.69.27 1.65.15.945.15 1.35 0 .54-.285 1.08-.285.525-.765.765-.825.405-2.625.405-.06 0-.105-.12a1 1 0 0 1-.045-.33q0-.33.09-.57.09-.255.21-.255 2.475 0 2.475-.525 0-.435-.15-1.38-.135-.96-.375-1.725zm-1.68-1.5v-1.5h1.65v1.5zm10.059 1.65q.87 0 1.455.66.6.645.885 1.62t.285 1.92q0 1.35-.435 2.16-.42.825-1.44 1.44-1.665.99-5.55 1.35l-.3-1.275q2.625-.255 4.095-.63t2.055-.915q.6-.525.6-1.305v-.105q-.915.255-2.175.255-.93 0-1.41-.435-.465-.45-.465-1.215 0-.945.3-1.74.315-.81.855-1.29.555-.495 1.245-.495m-1.425 3q0 .405.285.66.3.24.84.24.975 0 1.845-.18-.18-1.11-.645-1.77-.45-.675-1.05-.675-.555 0-.915.525-.36.51-.36 1.2m18.526 2.1q-.735 0-1.275-.24a1.68 1.68 0 0 1-.795-.735q-.18.585-.615 1.005-.42.42-.915.42-.705 0-1.41-.315-.69-.3-1.14-.81t-.45-1.05q0-.645.285-1.26-.66.345-1.11.72-.435.375-.525.69-.075.33-.075 1.275 0 1.77.225 6.375l-1.2.225q-.075-2.625-.075-6.225 0-1.41.45-2.325.465-.915 1.35-1.5.825-.54 2.04-.9 1.215-.375 2.085-.375.51 0 .78.315.285.3.42 1.035.24 1.245.705 1.83.48.57 1.395.57zm-5.625-2.4q0 .39.375.765.375.36.915.585t.96.225q.525 0 .525-1.275 0-1.65-.75-1.65-.825 0-1.785.36-.24.525-.24.99m8.885-2.85q.135.69.27 1.65.15.945.15 1.35 0 .54-.285 1.08-.285.525-.765.765-.825.405-2.625.405-.06 0-.105-.12a1 1 0 0 1-.045-.33q0-.33.09-.57.09-.255.21-.255 2.475 0 2.475-.525 0-.33-.18-1.35-.165-1.035-.345-1.755zm-3.03 7.05h1.95v1.2h-3.75v-1.2zm8.26-6.9q.87 0 1.455.66.6.645.885 1.62t.285 1.92q0 1.35-.435 2.16-.42.825-1.44 1.44-1.665.99-5.55 1.35l-.3-1.275q2.625-.255 4.095-.63t2.055-.915q.6-.525.6-1.305v-.105q-.915.255-2.175.255-.93 0-1.41-.435-.465-.45-.465-1.215 0-.945.3-1.74.315-.81.855-1.29.555-.495 1.245-.495m-1.425 3q0 .405.285.66.3.24.84.24.975 0 1.845-.18-.18-1.11-.645-1.77-.45-.675-1.05-.675-.555 0-.915.525-.36.51-.36 1.2m8.441-2.4q.48 2.4.48 4.05 0 1.215-.39 2.04-.375.84-1.395 1.47-1.005.63-2.865 1.065l-.45-1.2q1.65-.435 2.535-.885.885-.435 1.2-.9.315-.45.315-.99 0-.84-.18-2.025-.165-1.2-.42-2.25zm13.445 4.5q.24.255.24.675 0 .555-.255 1.08-.24.525-.795.945-.945.72-2.565 1.185-1.605.465-3.135.465-2.04 0-3.045-.825t-1.005-2.325q0-1.485.75-4.035l.945.27q-.285 1.035-.435 1.905-.135.87-.135 1.41 0 1.08.825 1.695.825.63 2.325.63 1.335 0 2.595-.33 1.275-.33 2.07-.78.81-.45.81-.765 0-.27-.315-.48-.315-.195-1.095-.405-.78-.195-2.265-.465l.3-1.2q1.035.045 1.89.06t1.86.015h1.425l-.15 1.275zm6.159-5.475q.555 0 .9.285.36.27.525.84.375 1.245.375 2.625 0 .345-.21.75-.195.405-.525.69-.315.285-.66.285-.435 0-1.065-.165-.615-.165-1.185-.48-.555-.315-.825-.735-.54.81-1.14 1.095t-1.515.285q-.06 0-.105-.12a1 1 0 0 1-.045-.33q0-.33.09-.57.09-.255.21-.255.525 0 .885-.12.375-.12.705-.45.33-.345.66-1.005.51-1.035.915-1.575.405-.555.87-.795.465-.255 1.14-.255m-2.07 3.03q.345.51 1.17.84t1.47.33q.09 0 .12-.075.045-.075.045-.285 0-.3-.105-1.005t-.255-1.11a.87.87 0 0 0-.24-.375q-.15-.15-.36-.15-.555 0-.945.36-.375.345-.78 1.215zM586.719 526.9q.435 0 .735.315.315.3.315.735t-.315.75a1 1 0 0 1-.735.3q-.435 0-.75-.3-.3-.315-.3-.75a1 1 0 0 1 .3-.735q.315-.315.75-.315m6.222-4.725q.51.465 1.74 1.47.765.615 1.14.975.375.345.585.735.21.375.21.87 0 .465-.24.945-.225.465-.66.84-.675.57-1.815.93t-2.31.36q-.78 0-1.185-.435-.39-.435-.39-1.29v-.825l.975-.075v.3q0 .57.21.81t.765.24q.78 0 1.635-.24.87-.24 1.455-.585t.585-.6q0-.36-.405-.765t-1.305-1.125a24 24 0 0 1-1.665-1.41zM602.99 529q-1.23 0-1.695-.435a3.95 3.95 0 0 1-.735 1.815q-.585.825-1.62 1.395-1.56.84-4.05 1.275l-.225-.69q-.045-.195-.15-.51 3.375-.6 4.575-1.485t1.2-1.89q0-.495-.18-1.53-.18-1.05-.42-1.995l1.17-.375q.21 1.395.435 2.04.225.63.63.87t1.215.24zm1.806-7.35a83 83 0 0 1 1.635 2.385q.51.765.75 1.335t.24 1.08q0 .615-.315 1.17t-.81.855q-.87.525-3.3.525-.06 0-.105-.12a1 1 0 0 1-.045-.33q0-.33.09-.57.09-.255.21-.255 1.575 0 2.43-.18.87-.195.87-.495 0-.45-.24-.99-.225-.555-.765-1.38t-1.62-2.355l.3-1.575 6.75-3.075.225 1.125zM623.03 529q-.735 0-1.275-.24a1.68 1.68 0 0 1-.795-.735q-.18.585-.615 1.005-.42.42-.915.42-.705 0-1.41-.315-.69-.3-1.14-.81t-.45-1.05q0-.645.285-1.26-.66.345-1.11.72-.435.375-.525.69-.075.33-.075 1.275 0 1.77.225 6.375l-1.2.225q-.075-2.625-.075-6.225 0-1.41.45-2.325.465-.915 1.35-1.5.825-.54 2.04-.9 1.215-.375 2.085-.375.51 0 .78.315.285.3.42 1.035.24 1.245.705 1.83.48.57 1.395.57zm-5.625-2.4q0 .39.375.765.375.36.915.585t.96.225q.525 0 .525-1.275 0-1.65-.75-1.65-.825 0-1.785.36-.24.525-.24.99m11.405 2.4q-.96 0-1.545-.3a1.63 1.63 0 0 1-.78-.96q-.33.615-1.125.945-.795.315-2.025.315h-.3q-.06 0-.105-.12a1 1 0 0 1-.045-.33q0-.33.09-.57.09-.255.21-.255h.3q1.35 0 1.98-.405.645-.42.645-1.32v-1.26l1.05-.09V526q0 .84.42 1.29.42.435 1.38.435zm-4.65 1.8h1.95v1.2h-3.75v-1.2zm6.971-9.075q1.395.93 3.39 2.04 1.23.69 1.845 1.11.63.405.99.885.375.465.375 1.065t-.24 1.155-.675.9q-.42.345-.96.345-.69 0-1.785-.225-1.08-.21-1.92-.525-1.395.525-3.345.525-.06 0-.105-.12a1 1 0 0 1-.045-.33q0-.33.09-.57.09-.255.21-.255.675 0 1.23-.045a1.77 1.77 0 0 1-.405-1.155q0-.855.51-1.725t1.275-1.32q-.39-.24-.96-.63zm-.375 4.35q0 .84 1.305 1.26.765-.24 1.155-.57.39-.345.39-.69 0-.765-.33-1.32-.315-.555-.84-.555-.39 0-.78.345t-.645.81q-.255.45-.255.72m2.895 1.545q1.5.405 2.43.405.27 0 .435-.24.165-.255.165-.66 0-.45-.495-.855-.495-.42-1.635-1.05.03.27.03.405 0 1.155-.93 1.995m6.706 1.455-.225-11.55 1.2-.075V529zm8.347-.075q-.105.93-.54 1.56-.435.645-1.275 1.14-1.665.99-5.55 1.35l-.3-1.275q2.58-.255 4.035-.63 1.455-.36 2.07-.87t.645-1.26q-1.14.06-2.175.06-.93 0-1.41-.435-.465-.45-.465-1.215 0-.945.3-1.74.315-.81.855-1.29.555-.495 1.245-.495.81 0 1.38.585.585.57.885 1.455.3.87.345 1.785h1.065l-.15 1.275zm-3.99-2.1q0 .405.285.66.3.24.84.24 1.02 0 1.86-.06-.165-1.14-.63-1.845-.465-.72-1.08-.72-.555 0-.915.525-.36.51-.36 1.2m7.876-3.75q.315 0 .735.15t1.32.51q1.275.54 2.355.9 1.095.345 2.265.465l-.3 1.17-.525-.045q-.3 0-.735.18t-1.185.57q-1.14.57-2.07.96-.915.39-2.16.69t-2.625.3q-.06 0-.105-.12a1 1 0 0 1-.045-.33q0-.33.09-.57.09-.255.21-.255 1.755 0 3.285-.48 1.545-.48 3.495-1.38-1.485-.45-2.85-1.035-.525-.225-.81-.315-.27-.09-.495-.09t-.45.24q-.21.225-.6.885l-.75-.525q.585-1.05.99-1.455.42-.42.96-.42m-.45-2.025v-1.5h1.65v1.5zM674.935 529q.24.255.24.675 0 .555-.255 1.08-.24.525-.795.945-.945.72-2.565 1.185-1.605.465-3.135.465-2.04 0-3.045-.825t-1.005-2.325q0-1.485.75-4.035l.945.27q-.285 1.035-.435 1.905-.135.87-.135 1.41 0 1.08.825 1.695.825.63 2.325.63 1.335 0 2.595-.33 1.275-.33 2.07-.78.81-.45.81-.765 0-.27-.315-.48-.315-.195-1.095-.405-.78-.195-2.265-.465l.3-1.2q1.035.045 1.89.06t1.86.015h1.425l-.15 1.275zm11.334-5.1q.12.645.21 1.605t.09 1.62q0 .855-.45 1.365t-1.05.51q-.795 0-1.395-.285-.6-.3-.87-.84-.33.555-.855.84t-1.155.285q-.69 0-1.23-.285-.525-.285-.72-.84-.72 1.125-3.075 1.125-.06 0-.105-.12a1 1 0 0 1-.045-.33q0-.33.09-.57.09-.255.21-.255 1.35 0 1.98-.405.645-.42.645-1.32v-.81l1.05-.09v1.125q0 .69.345 1.095t1.005.405q.6 0 1.005-.42.42-.435.42-1.005v-.96l1.05-.09v.975q0 .675.465 1.095.48.405 1.26.405.165 0 .27-.105t.105-.27q0-.42-.135-1.38-.12-.975-.27-1.725zm4.547.6q.24 1.155.36 2.085t.12 1.365q0 1.17-.6 2.16-.6 1.005-1.8 1.665-1.56.84-4.05 1.275l-.225-.69q-.045-.195-.15-.51 3.375-.6 4.575-1.485t1.2-1.89q0-.48-.18-1.53t-.42-2.07zm7.008 4.5q-1.17 0-1.65-.39-.015 1.185-.405 2.01-.375.84-1.395 1.455-1.005.615-2.85 1.05l-.45-1.2q1.65-.435 2.535-.885.885-.435 1.2-.9.315-.45.315-.99 0-.945-.18-2.055-.165-1.125-.42-2.145l1.17-.375q.21 1.395.435 2.04.225.63.63.87t1.215.24zm3.26-5.25q.135.69.27 1.65.15.945.15 1.35 0 .54-.285 1.08-.285.525-.765.765-.825.405-2.625.405-.06 0-.105-.12a1 1 0 0 1-.045-.33q0-.33.09-.57.09-.255.21-.255 2.475 0 2.475-.525 0-.435-.15-1.38-.135-.96-.375-1.725zm-2.73 8.55v-1.5h1.65v1.5z"/><path fill="#fff" fill-opacity=".5" d="M370.871 295.04q-5.84 0-11.36-2.08t-9.92-6.16l7.2-8.88h.08q1.28 1.12 3.04 2.08a26.7 26.7 0 0 0 5.52 2.4q2.96.8 5.68.8 3.76 0 5.6-1.2 1.84-1.28 1.84-3.6 0-1.52-.96-2.56-.88-1.04-2.24-1.68t-4.8-2.08l-7.28-2.96q-5.04-2.16-8.24-6-3.12-3.92-3.12-9.68 0-4.72 2.64-8.64 2.64-4 7.28-6.24 4.72-2.32 10.56-2.32 5.28 0 10.08 1.84 4.8 1.76 8.4 5.28l-7.12 8.88h-.08q-1.84-1.36-3.36-2.08-4-2.08-7.92-2.08-3.04 0-4.88 1.2t-1.84 3.36q0 1.92 1.6 3.04t5.44 2.56l1.52.64 7.12 2.96q5.44 2.08 8.24 5.84 2.88 3.76 2.88 9.52 0 4.88-2.56 8.96-2.56 4-7.44 6.48-4.88 2.4-11.6 2.4m34.192-29.44v-28.32h36v11.44h-22.32v10.48h19.12v11.44h-19.12v11.92h23.2V294h-36.88v-28.4m45.809 22 15.76-50.32h16.48l15.76 50.72.48 1.6 1.36 4.4h-14.48l-1.12-4.4-.32-1.6-1.76-6.96h-16.72l-1.68 6.56-.48 2-1.04 4.4h-14.08l1.28-4.4zm29.52-17.12q-.72-2.8-4.24-16.8-.48-2.24-1.44-6.08h-.32l-.4 1.76q-3.04 13.52-5.04 21.12zm46.954 24.56q-5.84 0-11.36-2.08t-9.92-6.16l7.2-8.88h.08q1.28 1.12 3.04 2.08a26.7 26.7 0 0 0 5.52 2.4q2.96.8 5.68.8 3.76 0 5.6-1.2 1.84-1.28 1.84-3.6 0-1.52-.96-2.56-.88-1.04-2.24-1.68t-4.8-2.08l-7.28-2.96q-5.04-2.16-8.24-6-3.12-3.92-3.12-9.68 0-4.72 2.64-8.64 2.64-4 7.28-6.24 4.72-2.32 10.56-2.32 5.28 0 10.08 1.84 4.8 1.76 8.4 5.28l-7.12 8.88h-.08q-1.84-1.36-3.36-2.08-4-2.08-7.92-2.08-3.04 0-4.88 1.2t-1.84 3.36q0 1.92 1.6 3.04t5.44 2.56l1.52.64 7.12 2.96q5.44 2.08 8.24 5.84 2.88 3.76 2.88 9.52 0 4.88-2.56 8.96-2.56 4-7.44 6.48-4.88 2.4-11.6 2.4m57.632 0q-7.68 0-13.6-3.52-5.92-3.6-9.2-10.24-3.2-6.72-3.2-15.92 0-9.12 3.2-15.68 3.279-6.56 9.12-10 5.919-3.44 13.68-3.44 7.76 0 13.6 3.44 5.919 3.44 9.12 10 3.28 6.56 3.28 15.68 0 9.2-3.28 15.92-3.201 6.64-9.12 10.24-5.84 3.52-13.6 3.52m0-11.84q5.52 0 8.72-4.8t3.2-13.04q0-8.16-3.2-12.72-3.12-4.56-8.72-4.56-5.52 0-8.72 4.56t-3.2 12.72q0 8.24 3.2 13.04t8.72 4.8m53.684-45.92 13.84 27.04q1.28 2.24 2.48 5.2a139 139 0 0 1 2.4 5.92l.64 1.52h.4q-1.68-13.76-1.68-21.04v-18.64h12.96V294h-14l-13.92-27.04q-1.2-2.4-3.6-8l-1.92-4.56h-.32l.48 4.48q1.28 10.56 1.28 16.48V294h-13.12v-56.72zM376.631 359.04q-7.68 0-13.6-3.52-5.92-3.6-9.2-10.24-3.2-6.72-3.2-15.92 0-9.12 3.2-15.68 3.28-6.56 9.12-10 5.92-3.44 13.68-3.44t13.6 3.44q5.92 3.44 9.12 10 3.28 6.56 3.28 15.68 0 9.2-3.28 15.92-3.2 6.64-9.12 10.24-5.84 3.52-13.6 3.52m0-11.84q5.52 0 8.72-4.8t3.2-13.04q0-8.16-3.2-12.72-3.12-4.56-8.72-4.56-5.52 0-8.72 4.56t-3.2 12.72q0 8.24 3.2 13.04t8.72 4.8m38.564-8v-24.56h11.2l.88 5.36h.32q3.04-2.96 6.4-4.64 3.36-1.76 7.44-1.76 6.88 0 10.16 4.64 3.36 4.56 3.36 12.96V358h-13.68v-25.12q0-4.32-1.2-6-1.12-1.68-3.76-1.68-2.16 0-3.68.88-1.44.8-3.84 2.96V358h-13.6v-18.8m73.036 19.84q-6.32 0-11.36-2.72t-7.92-7.84-2.88-12.16q0-6.72 2.88-11.84 2.96-5.2 7.68-8 4.8-2.88 10.08-2.88 6.08 0 10.24 2.72t6.24 7.44q2.16 4.72 2.16 10.72 0 1.68-.24 3.44-.16 1.68-.4 2.48h-25.52q1.04 4.48 4 6.4 2.96 1.84 6.88 1.84 4.56 0 9.36-2.72l4.32 8.16q-3.36 2.32-7.52 3.68-4.16 1.28-8 1.28m2.64-27.6h2.8q0-7.44-6.64-7.44-2.72 0-4.96 1.84-2.24 1.76-3.04 5.6z"/><path fill="#fff" fill-opacity=".27" d="M371.831 423.04q-6.32 0-11.36-2.72t-7.92-7.84-2.88-12.16q0-6.72 2.88-11.84 2.96-5.2 7.68-8 4.8-2.88 10.08-2.88 6.08 0 10.24 2.72t6.24 7.44q2.16 4.72 2.16 10.72 0 1.68-.24 3.44-.16 1.68-.4 2.48h-25.52q1.04 4.48 4 6.4 2.96 1.84 6.88 1.84 4.56 0 9.36-2.72l4.32 8.16q-3.36 2.32-7.52 3.68-4.16 1.28-8 1.28m2.64-27.6h2.8q0-7.44-6.64-7.44-2.72 0-4.96 1.84-2.24 1.76-3.04 5.6zm26.271 25.52v-42.32h11.2l.88 4.16h.32a19.5 19.5 0 0 1 5.76-3.76q3.2-1.44 6.4-1.44 5.12 0 8.88 2.72 3.84 2.72 5.84 7.68 2.08 4.96 2.08 11.6 0 7.12-2.56 12.48t-6.72 8.16q-4.08 2.8-8.8 2.8-5.44 0-10.16-4.48l.48 6.8v12.4h-13.6v-16.8m13.6-11.52q3.12 2.4 6.4 2.4t5.36-2.96 2.08-9.12q0-5.6-1.76-8.24-1.68-2.72-5.2-2.72-1.92 0-3.52.8t-3.36 2.72zm47.516-5.84q3.84 0 6.48 2.72 2.72 2.64 2.72 6.48t-2.72 6.56q-2.64 2.64-6.48 2.64t-6.56-2.64q-2.64-2.72-2.64-6.56t2.64-6.48q2.72-2.72 6.56-2.72m30.006 2.4v-25.68h-10.4v-8.4q4.48-.96 7.68-2.16t6.32-2.96h10.08V422h-13.68v-16"/><path fill="#000" d="M636.599 349.427q-.04 3.021-2.16 4.44-1.06.76-2.72 1.26t-3.42.5q-2.68 0-4.08-1.2-1.38-1.2-1.38-3.5 0-2.16 1.1-5.84l1.88.52q-.72 2.76-.72 4.16 0 1.38.94 2.14t2.76.76q1.6 0 3.18-.5t2.32-1.18q.12-.12.18-.36.08-.26.06-.56l-.34-14.04 2.5-.2zm6.665-6.2q1.24 0 2.14.88.9.86 1.38 2.36.48 1.48.48 3.3 0 1.96-.66 3.26t-2.14 2.14q-2.42 1.401-7.76 1.86l-.2-1.02-.34-1.68q3.48-.3 5.48-.74 2-.42 2.82-1.02.84-.58.84-1.4v-.12q-1.38.42-3 .42-1.4 0-2.12-.7-.72-.72-.72-2 0-1.419.48-2.7.5-1.28 1.36-2.06t1.96-.78m-1.9 4.44q0 1 1.4 1 1.2 0 2.28-.2-.26-1.28-.82-1.96-.54-.68-1.32-.68-.66 0-1.1.58-.44.561-.44 1.26m8.906 4-.44-15.64 2.5-.2-.1 15.64zm24.213-.14q-.8 0-1.34-.16a2 2 0 0 1-.88-.56l-.04.66q-.1 1.341-.62 2.28-.5.96-1.48 1.62-1.06.76-2.72 1.26t-3.42.5q-2.68 0-4.08-1.2-1.38-1.2-1.38-3.5 0-2.16 1.1-5.84l1.88.52q-.72 2.76-.72 4.16 0 1.38.94 2.14.939.76 2.76.76 1.599 0 3.18-.5 1.58-.5 2.32-1.18.12-.12.18-.38.08-.24.06-.54l-.06-3.06-.28-12.48 2.5-.2-.06 9.9q0 1.52.56 2.18.58.66 1.9.66zm18.058 0q-2.3 0-3.02-1.22-.099.06-.48.26-1.04.48-2.58.72-1.52.24-3.08.24-2 0-3.18-.48-1.16-.48-1.52-1.3a2.88 2.88 0 0 1-1.54 1.38q-1 .4-2.66.4-.08 0-.16-.3-.08-.32-.08-.9 0-.92.18-1.34.16-.42.36-.42 1.58 0 2.32-.44.74-.459.74-1.5v-1.24l2-.16v1.14q0 .98.64 1.48 2.22-2.78 3.84-4.14 1.62-1.38 2.96-1.38 1.02 0 2 .66.98.64 1.58 1.7.62 1.06.62 2.18 0 .8-.3 1.52.64.18 1.66.18zm-10.28-3.04q.92.08 1.58.08 1.44 0 2.72-.16 1.281-.18 2.04-.42.78-.26.78-.52 0-.44-.38-1.02a3.7 3.7 0 0 0-.98-1q-.6-.42-1.24-.42-.86 0-1.92.86-1.06.84-2.6 2.6m15.247-9.12q1.22 0 2.1.88.88.86 1.34 2.44t.46 3.68q0 1.54-.64 2.82-.64 1.281-1.76 1.74-1.44.6-5 .6h-1.46q-.08 0-.16-.3-.08-.32-.08-.9 0-.92.18-1.34.159-.42.36-.42h1.6q3.54 0 4.66-.44.4-.18.4-.8 0-.52-.02-.76-.621.18-1.38.3-.76.1-1.46.1-1.401 0-2.1-.66t-.7-1.88q0-1.26.46-2.42.46-1.18 1.3-1.9.84-.74 1.9-.74m-1.76 4.16q0 .42.32.68.34.26.98.26 1.12 0 2.18-.2-.28-1.26-.82-1.88-.52-.62-1.26-.62-.6 0-1 .54-.4.52-.4 1.22m.16-6v-2.5h2.7v2.5zm-83.31 42.7q0 1.26-.38 2.16-.36.88-1.12 1.54-1.059.9-2.94 1.54-1.88.66-3.86.66-2.64 0-3.98-1.1-1.32-1.1-1.32-3.1 0-1.98 1-5.38l1.26.36q-.38 1.38-.58 2.54-.18 1.16-.18 1.88 0 1.44 1.08 2.26 1.08.84 3.02.84 1.32 0 2.66-.36 1.36-.34 2.36-.88 1.02-.519 1.38-1.02.2-.28.2-1.04l-.2-13.9 1.6-.1zm6.402-4.5q1.16 0 1.94.88.8.861 1.18 2.16t.38 2.56q0 1.8-.58 2.88-.56 1.101-1.92 1.92-2.22 1.32-7.4 1.8l-.4-1.7q3.5-.339 5.46-.84t2.74-1.22q.8-.699.8-1.74v-.14q-1.22.34-2.9.34-1.24 0-1.88-.58-.62-.6-.62-1.62 0-1.26.4-2.32.42-1.08 1.14-1.72.74-.66 1.66-.66m-1.9 4q0 .54.38.88.4.32 1.12.32 1.3 0 2.46-.24-.24-1.48-.86-2.36-.6-.9-1.4-.9-.74 0-1.22.7-.48.68-.48 1.6m8.898 2.9-.3-15.4 1.6-.1v15.4zm26.308-.1q-1.38 0-2.18-.48t-1.02-1.52q-.26.6-1.48 1.14-1.22.52-3.14.84t-4.18.32q-3.14 0-4.48-.9-1.32-.92-1.32-2.6 0-1.1.8-3.5l1.16.4q-.46 1.641-.46 2.4 0 2.5 4.6 2.5 2.5 0 4.34-.32t2.8-.8q.96-.5.96-.98v-2.18l1.4-.12v1.8q0 1.12.56 1.72.56.58 1.84.58zm-9.9-9.1h2.6v1.6h-5v-1.6zm21.81 9.1q-2.1 0-2.9-1.08-.24.58-.7.98t-1 .4q-1.04 0-2.18-.62-1.12-.64-1.68-1.46-.74 1.08-1.48 1.44-.74.34-1.96.34-.08 0-.14-.16a1.3 1.3 0 0 1-.06-.44q0-.44.12-.76.12-.34.28-.34.78 0 1.28-.18.52-.18.94-.64.42-.459.88-1.38.78-1.56 1.8-2.22a4.05 4.05 0 0 1 2.3-.68q.8 0 1.18.34.4.321.52 1.26.2 1.48.52 2.22.32.72.88 1t1.6.28zm-7.6-3.24q.5.74 1.54 1.3 1.04.54 1.76.54.3 0 .3-1 0-1.56-.16-2.18t-.64-.62q-.9 0-1.54.4-.62.381-1.06 1.2zm24.194 3.24q-2.24 0-2.94-1.3-.38.66-.98.98-.58.32-1.18.32-.78 0-1.38-.36a2.06 2.06 0 0 1-.82-1q-.46.66-1.14 1.02-.66.34-1.46.34-.92 0-1.64-.38a1.98 1.98 0 0 1-.96-1.12q-.96 1.5-4.1 1.5-.08 0-.14-.16a1.3 1.3 0 0 1-.06-.44q0-.44.12-.76.12-.34.28-.34 1.8 0 2.64-.54.86-.56.86-1.76v-1.08l1.4-.12v1.5q0 .92.46 1.46t1.34.54q.8 0 1.34-.56.56-.58.56-1.34v-1.28l1.4-.12v1.3q0 .96.4 1.48.42.52 1.1.52.62 0 .96-.54.34-.56.34-1.66v-1.78l1.4-.12v1.8q0 1.12.56 1.72.56.58 1.84.58zm4.602-10.3q1.659 0 2.52 1.74.88 1.74.88 4.56 0 1.08-.44 2.06-.42.98-1.26 1.34-.66.3-1.92.46-1.26.14-2.88.14h-1.5q-.08 0-.14-.16a1.3 1.3 0 0 1-.06-.44q0-.44.12-.76.12-.34.28-.34h1.8q3.18 0 4.3-.5.4-.18.4-1 0-.56-.02-.82-1.56.32-2.78.32-1.221 0-1.86-.58-.64-.58-.64-1.52 0-1.16.4-2.2.42-1.04 1.14-1.66.74-.64 1.66-.64m-1.92 3.8q0 .54.4.88.4.32 1.12.32 1.08 0 2.34-.22-.261-1.52-.84-2.34-.58-.84-1.4-.84-.68 0-1.16.66-.46.64-.46 1.54m1.72-7.7h2.6v1.6h-5v-1.6zm6.794 13.6 7.8-13.8 1.3 1-8 13.6zM430.711 425.527q-4.188 0-6.177-1.846-.994 4.828-3.976 8.52-2.91 3.764-8.165 6.461-7.88 3.976-21.584 6.532l-3.408-10.437q16.614-2.91 22.791-6.39 6.177-3.408 6.177-7.455 0-2.271-.923-7.668-.922-5.466-2.485-11.431l9.656-3.124q1.278 6.603 2.201 9.372t2.414 3.763q1.563.994 4.757.994zm.084 0q-.356 0-.639-1.349-.355-1.42-.355-3.976 0-4.047.71-5.68.71-1.704 1.491-1.704h10.65l-1.207 12.709zm10.678 0q-.356 0-.639-1.349-.355-1.42-.355-3.976 0-4.047.71-5.68.71-1.704 1.491-1.704h10.65l-1.207 12.709zm10.677 0q-.354 0-.639-1.349-.354-1.42-.355-3.976 0-4.047.71-5.68.711-1.704 1.491-1.704h10.65l-1.207 12.709zm10.678 0q-.356 0-.639-1.349-.355-1.42-.355-3.976 0-4.047.71-5.68.71-1.704 1.491-1.704h10.65l-1.207 12.709zm10.678 0q-.356 0-.639-1.349-.355-1.42-.355-3.976 0-4.047.71-5.68.71-1.704 1.491-1.704h10.65l-1.207 12.709zm10.678 0q-.356 0-.639-1.349-.355-1.42-.355-3.976 0-4.047.71-5.68.71-1.704 1.491-1.704h10.65l-1.207 12.709zm10.677 0q-.354 0-.639-1.349-.354-1.42-.355-3.976 0-4.047.71-5.68.711-1.704 1.491-1.704h10.65l-1.207 12.709zm10.678 0q-.356 0-.639-1.349-.355-1.42-.355-3.976 0-4.047.71-5.68.71-1.704 1.491-1.704h10.65l-1.207 12.709zm23.458-36.423q5.538 7.171 7.739 11.502 2.272 4.332 2.272 8.023 0 4.758-2.627 9.017-2.556 4.19-6.674 5.893-4.473 1.988-13.49 1.988-.356 0-.639-1.349-.355-1.42-.355-3.976 0-4.047.71-5.68.71-1.704 1.491-1.704 5.821 0 9.088-.71 3.337-.71 3.337-1.704 0-1.561-2.414-5.254-2.343-3.692-8.378-11.502l2.201-11.431 30.885-12.709 1.846 9.869zm32.903 4.26q4.544 0 7.952 3.124 3.408 3.054 5.254 8.733 1.846 5.61 1.846 13.135 0 7.313-2.485 12.212-2.486 4.9-7.952 8.023-9.088 5.042-28.116 6.603l-2.272-11.36q18.033-1.349 25.418-3.834 7.383-2.413 7.384-6.177v-.426q-5.112 1.704-10.863 1.704-5.254 0-8.023-2.769-2.698-2.769-2.698-7.739 0-5.396 1.846-10.295 1.917-4.899 5.254-7.881 3.336-3.053 7.455-3.053m-6.745 16.614q0 1.562 1.065 2.414 1.136.781 3.692.781 4.117 0 7.881-.71-1.989-8.236-7.384-8.236-2.202 0-3.763 1.846-1.491 1.776-1.491 3.905m51.323 15.549q-3.906 0-5.893-1.562-.569 5.538-3.053 9.514-2.415 3.977-7.384 6.887-4.97 2.912-12.922 4.97l-3.976-10.508q10.791-2.769 14.839-5.609 4.047-2.769 4.047-6.177 0-3.762-.923-9.372-.852-5.608-2.485-11.857l9.656-3.124q1.278 6.603 2.201 9.372t2.414 3.763q1.562.994 4.757.994zm.084 0q-.356 0-.639-1.349-.355-1.42-.355-3.976 0-4.047.71-5.68.71-1.704 1.491-1.704h10.65l-1.207 12.709zm10.677 0q-.354 0-.639-1.349-.354-1.42-.355-3.976 0-4.047.71-5.68.711-1.704 1.491-1.704h10.65l-1.207 12.709zm10.678 0q-.356 0-.639-1.349-.355-1.42-.355-3.976 0-4.047.71-5.68.71-1.704 1.491-1.704h10.65l-1.207 12.709zm10.678 0q-.356 0-.639-1.349-.355-1.42-.355-3.976 0-4.047.71-5.68.71-1.704 1.491-1.704h10.65l-1.207 12.709zm10.677 0q-.354 0-.639-1.349-.354-1.42-.355-3.976 0-4.047.71-5.68.711-1.704 1.491-1.704h10.65l-1.207 12.709zm10.678 0q-.354 0-.639-1.349-.355-1.42-.355-3.976 0-4.047.71-5.68.711-1.704 1.491-1.704h10.65l-1.207 12.709zm10.678 0q-.356 0-.639-1.349-.355-1.42-.355-3.976 0-4.047.71-5.68.71-1.704 1.491-1.704h10.65l-1.207 12.709zm29.919-32.589q2.13 11.502 2.13 15.833 0 4.402-2.201 8.662-2.13 4.19-5.964 6.035-4.403 2.06-13.206 2.059-.356 0-.639-1.349-.355-1.42-.355-3.976 0-4.047.71-5.68.71-1.704 1.491-1.704 10.934 0 10.934-2.485 0-1.562-.852-5.822a121 121 0 0 0-1.917-8.733zm-17.04 48.99v-9.727h10.508v9.727z"/></svg>