<svg width="26" height="27" viewBox="0 0 26 27" fill="none" xmlns="http://www.w3.org/2000/svg">
<path d="M11.2217 1.51169L8.82833 0.887658C8.31714 0.751461 7.78413 0.717351 7.25975 0.787278C6.73537 0.857204 6.22992 1.0298 5.77229 1.29519C5.31466 1.56058 4.91382 1.91357 4.59269 2.33397C4.27156 2.75437 4.03644 3.23394 3.90077 3.74526L3.30338 6.00166C5.27342 3.5497 8.10614 1.94345 11.2217 1.51169Z" fill="#FCBD00"/>
<path d="M0.722978 15.7158L0.136998 17.9266C-0.136918 18.9584 0.0102568 20.0568 0.546151 20.9802C1.08204 21.9036 1.96277 22.5763 2.9946 22.8503L5.27764 23.4591C2.83987 21.5425 1.21365 18.7778 0.722978 15.7158Z" fill="#FCBD00"/>
<path d="M23.0054 4.65083L20.4446 3.96973C21.7386 4.96509 22.822 6.20753 23.632 7.62496C24.4419 9.04239 24.9623 10.6066 25.1629 12.2267L25.8668 9.56317C26.1372 8.53237 25.9878 7.43644 25.4514 6.51561C24.915 5.59478 24.0354 4.92419 23.0054 4.65083Z" fill="#FCBD00"/>
<path d="M14.7228 25.9632L17.1771 26.6253C18.2089 26.8992 19.3074 26.752 20.2307 26.2162C21.1541 25.6803 21.8268 24.7995 22.1008 23.7677L22.7934 21.165C20.8408 23.7657 17.9403 25.4901 14.7228 25.9632Z" fill="#FCBD00"/>
<path d="M13.001 2.47852C10.771 2.47776 8.59083 3.13836 6.73626 4.37675C4.8817 5.61514 3.43604 7.37569 2.58212 9.43576C1.7282 11.4958 1.50439 13.7628 1.93898 15.9501C2.37358 18.1374 3.44706 20.1466 5.02367 21.7238C6.60027 23.3009 8.60917 24.3751 10.7963 24.8104C12.9834 25.2457 15.2505 25.0227 17.3109 24.1695C19.3712 23.3163 21.1323 21.8712 22.3713 20.017C23.6103 18.1629 24.2716 15.9829 24.2716 13.7529C24.2716 10.7634 23.0843 7.89631 20.9708 5.78206C18.8572 3.66781 15.9905 2.47953 13.001 2.47852ZM6.61613 8.1024C6.73668 7.47733 7.03985 6.90204 7.48732 6.44925C7.9348 5.99646 8.50647 5.68651 9.13007 5.55859C9.75368 5.43066 10.4012 5.4905 10.9908 5.73055C11.5804 5.97059 12.0856 6.38006 12.4425 6.90718C12.7994 7.43431 12.992 8.05542 12.996 8.69199C12.9999 9.32857 12.8151 9.95203 12.4647 10.4836C12.1144 11.0151 11.6143 11.4308 11.0278 11.6781C10.4412 11.9255 9.79447 11.9934 9.16932 11.8732C8.75402 11.7934 8.35852 11.6325 8.00541 11.3998C7.65231 11.167 7.34853 10.867 7.11142 10.5168C6.87431 10.1666 6.70853 9.77317 6.62355 9.35889C6.53856 8.94462 6.53604 8.51765 6.61613 8.1024ZM11.3002 17.8434C11.1788 18.4682 10.8748 19.043 10.4268 19.4952C9.97877 19.9473 9.40675 20.2565 8.78305 20.3836C8.15934 20.5107 7.51195 20.4501 6.9227 20.2094C6.33345 19.9686 5.8288 19.5586 5.47254 19.0311C5.11627 18.5036 4.92438 17.8824 4.92113 17.2458C4.91787 16.6093 5.1034 15.9861 5.45426 15.455C5.80511 14.9239 6.30554 14.5088 6.8923 14.262C7.47906 14.0153 8.12579 13.948 8.75077 14.0687C9.16611 14.149 9.56157 14.3103 9.91453 14.5435C10.2675 14.7766 10.571 15.0771 10.8078 15.4277C11.0446 15.7782 11.2099 16.172 11.2944 16.5865C11.3789 17.001 11.3808 17.4281 11.3002 17.8434ZM12.6662 15.2369C12.3887 15.1832 12.1334 15.0486 11.9324 14.85C11.7313 14.6514 11.5936 14.3976 11.5366 14.1209C11.4796 13.8441 11.5059 13.5566 11.612 13.2947C11.7182 13.0328 11.8995 12.8082 12.1332 12.6493C12.3668 12.4903 12.6423 12.4042 12.9249 12.4016C13.2075 12.399 13.4845 12.4802 13.721 12.6349C13.9575 12.7896 14.1429 13.0108 14.2538 13.2707C14.3647 13.5307 14.3962 13.8176 14.3442 14.0954C14.3095 14.2808 14.2385 14.4575 14.1353 14.6153C14.032 14.7732 13.8986 14.9091 13.7426 15.0152C13.5867 15.1213 13.4113 15.1955 13.2265 15.2335C13.0418 15.2716 12.8514 15.2727 12.6662 15.2369ZM19.3821 19.3958C19.2616 20.0209 18.9584 20.5962 18.5109 21.049C18.0634 21.5018 17.4918 21.8117 16.8682 21.9396C16.2446 22.0676 15.597 22.0077 15.0074 21.7677C14.4178 21.5276 13.9126 21.1182 13.5557 20.5911C13.1988 20.0639 13.0062 19.4428 13.0023 18.8062C12.9983 18.1697 13.1832 17.5462 13.5335 17.0147C13.8838 16.4832 14.3839 16.0674 14.9705 15.8201C15.557 15.5727 16.2038 15.5048 16.8289 15.625C17.2442 15.7048 17.6397 15.8657 17.9928 16.0985C18.3459 16.3312 18.6497 16.6312 18.8868 16.9814C19.1239 17.3316 19.2897 17.7251 19.3747 18.1393C19.4597 18.5536 19.4622 18.9806 19.3821 19.3958ZM17.2513 13.4295C16.6262 13.3089 16.0509 13.0058 15.5981 12.5583C15.1453 12.1108 14.8354 11.5391 14.7075 10.9155C14.5795 10.2919 14.6394 9.64441 14.8794 9.05481C15.1195 8.46521 15.5289 7.96002 16.0561 7.60311C16.5832 7.2462 17.2043 7.05359 17.8409 7.04963C18.4775 7.04568 19.1009 7.23055 19.6324 7.58088C20.1639 7.93121 20.5797 8.43127 20.827 9.01784C21.0744 9.60441 21.1423 10.2511 21.0221 10.8763C20.9427 11.2919 20.7821 11.6878 20.5496 12.0414C20.317 12.3949 20.0171 12.6991 19.6668 12.9366C19.3166 13.1741 18.923 13.3402 18.5085 13.4254C18.094 13.5107 17.6668 13.5133 17.2513 13.4333V13.4295Z" fill="#FCBD00"/>
</svg>
