<svg width="25" height="24" viewBox="0 0 25 24" fill="none" xmlns="http://www.w3.org/2000/svg">
<path d="M18.0436 0.261719H6.05579C2.74395 0.261719 0.0496826 2.95598 0.0496826 6.26783V17.2349C0.0496826 20.5468 2.74395 23.241 6.05579 23.241H18.0436C21.3554 23.241 24.0497 20.5468 24.0497 17.2349V6.26783C24.0497 2.95598 21.3554 0.261719 18.0436 0.261719ZM2.16845 6.26783C2.16845 4.12463 3.91259 2.38048 6.05579 2.38048H18.0436C20.1868 2.38048 21.9309 4.12463 21.9309 6.26783V17.2349C21.9309 19.3781 20.1868 21.1222 18.0436 21.1222H6.05579C3.91259 21.1222 2.16845 19.3781 2.16845 17.2349V6.26783Z" fill="#FCBD00"/>
<path d="M12.0497 17.3365C15.1294 17.3365 17.6363 14.8309 17.6363 11.7498C17.6363 8.66869 15.1308 6.16309 12.0497 6.16309C8.96855 6.16309 6.46295 8.66869 6.46295 11.7498C6.46295 14.8309 8.96855 17.3365 12.0497 17.3365ZM12.0497 8.28321C13.9621 8.28321 15.5176 9.83869 15.5176 11.7511C15.5176 13.6636 13.9621 15.2191 12.0497 15.2191C10.1372 15.2191 8.58172 13.6636 8.58172 11.7511C8.58172 9.83869 10.1372 8.28321 12.0497 8.28321Z" fill="#FCBD00"/>
<path d="M18.1536 7.06619C18.9829 7.06619 19.6588 6.39161 19.6588 5.56094C19.6588 4.73026 18.9842 4.05566 18.1536 4.05566C17.3229 4.05566 16.6483 4.73026 16.6483 5.56094C16.6483 6.39161 17.3229 7.06619 18.1536 7.06619Z" fill="#FCBD00"/>
</svg>
