<svg width="25" height="25" viewBox="0 0 25 25" fill="none" xmlns="http://www.w3.org/2000/svg">
<path d="M0.854113 5.59965C0.292078 5.07798 0.0125732 4.43224 0.0125732 3.66393C0.0125732 2.89562 0.293573 2.22147 0.854113 1.6983C1.41615 1.17662 2.13962 0.915039 3.02602 0.915039C3.91242 0.915039 4.6075 1.17662 5.16804 1.6983C5.73008 2.21997 6.00958 2.87618 6.00958 3.66393C6.00958 4.45167 5.72858 5.07798 5.16804 5.59965C4.60601 6.12133 3.89299 6.38291 3.02602 6.38291C2.15905 6.38291 1.41615 6.12133 0.854113 5.59965ZM5.53725 8.59219V24.5863H0.483412V8.59219H5.53725Z" fill="#FCBD00"/>
<path d="M22.3608 10.1726C23.4625 11.3685 24.0126 13.0097 24.0126 15.0994V24.3042H19.2129V15.7481C19.2129 14.6943 18.9393 13.8752 18.3937 13.2922C17.8482 12.7093 17.1127 12.4163 16.192 12.4163C15.2712 12.4163 14.5357 12.7078 13.9901 13.2922C13.4445 13.8752 13.171 14.6943 13.171 15.7481V24.3042H8.3429V8.54782H13.171V10.6375C13.6598 9.94096 14.319 9.39088 15.1471 8.98579C15.9752 8.58071 16.9064 8.37891 17.9423 8.37891C19.7869 8.37891 21.2607 8.97681 22.3608 10.1711V10.1726Z" fill="#FCBD00"/>
</svg>
