<svg width="25" height="21" viewBox="0 0 25 21" fill="none" xmlns="http://www.w3.org/2000/svg">
<path d="M0.680216 9.86786C0.735332 9.84011 0.790473 9.81374 0.84421 9.78876C1.77842 9.35309 2.72503 8.94518 3.67026 8.53725C3.72124 8.53725 3.80665 8.47758 3.85488 8.45816C3.9279 8.42625 4.00095 8.39573 4.07397 8.36382C4.21452 8.30277 4.35507 8.2431 4.49424 8.18205C4.77533 8.06133 5.05502 7.94062 5.33611 7.81991L7.0185 7.09425C8.14011 6.61141 9.26311 6.12716 10.3847 5.64431C11.5063 5.16146 12.6293 4.67723 13.7509 4.19438C14.8725 3.71154 15.9955 3.22731 17.1171 2.74446C18.2387 2.26161 19.3617 1.77736 20.4833 1.29451C20.7327 1.18629 21.0027 1.02534 21.27 0.978162C21.4946 0.937924 21.7137 0.860237 21.9397 0.817224C22.3682 0.735362 22.8408 0.702057 23.2514 0.881044C23.3933 0.943481 23.5242 1.03089 23.6331 1.1405C24.1539 1.65943 24.0809 2.51135 23.9707 3.24118C23.2032 8.32774 22.4357 13.4157 21.6668 18.5022C21.5621 19.2002 21.4188 19.966 20.8718 20.4073C20.4088 20.7805 19.7502 20.8221 19.1784 20.664C18.6065 20.5044 18.1023 20.17 17.6076 19.8412C15.5559 18.4731 13.5029 17.105 11.4512 15.737C10.9634 15.4123 10.4205 14.9877 10.4261 14.398C10.4288 14.0428 10.6396 13.7265 10.8546 13.4448C12.6375 11.1027 15.2101 9.49323 17.124 7.25936C17.394 6.9444 17.6062 6.37553 17.2356 6.19377C17.0151 6.08555 16.7616 6.23261 16.5604 6.37275C14.0306 8.1418 11.5022 9.91225 8.97237 11.6813C8.14702 12.2585 7.28171 12.8524 6.28687 12.9939C5.39675 13.1215 4.50113 12.8718 3.63995 12.6165C2.91794 12.4028 2.19728 12.1836 1.4794 11.9574C1.09772 11.8381 0.703644 11.7091 0.408776 11.4385C0.113908 11.1679 -0.0555495 10.7128 0.122198 10.3521C0.233807 10.1259 0.45014 9.98302 0.677491 9.86647L0.680216 9.86786Z" fill="#FCBD00"/>
</svg>
