<svg width="32" height="23" viewBox="0 0 32 23" fill="none" xmlns="http://www.w3.org/2000/svg">
<path d="M31.2358 6.64858C31.0454 4.77791 30.6357 2.70996 29.1276 1.62321C27.9596 0.78046 26.4244 0.749304 24.9912 0.751035C21.9615 0.751035 18.9302 0.756233 15.9005 0.757964C12.9865 0.761425 10.0724 0.763164 7.15835 0.766625C5.94105 0.766625 4.75774 0.671435 3.62715 1.20789C2.65636 1.6682 1.8964 2.54383 1.43906 3.5181C0.804906 4.87308 0.672302 6.40805 0.595795 7.90666C0.454683 10.6356 0.469984 13.3716 0.638299 16.0988C0.762409 18.0889 1.07693 20.2883 2.58836 21.5568C3.92807 22.6799 5.81863 22.7353 7.55618 22.737C13.0715 22.7422 18.5884 22.7474 24.1054 22.7508C24.8127 22.7526 25.5505 22.7387 26.2714 22.6591C27.6893 22.5034 29.0409 22.0898 29.9522 21.0203C30.872 19.9422 31.1083 18.4419 31.2477 17.0212C31.5877 13.574 31.5843 10.094 31.2358 6.64858ZM12.711 16.5833V6.91853L20.9329 11.7501L12.711 16.5833Z" fill="#FCBD00"/>
</svg>
